<svg width="149" height="48" viewBox="0 0 149 48" fill="none" xmlns="http://www.w3.org/2000/svg">
<g clip-path="url(#clip0_61_25223)">
<path d="M96.6561 40.7592V40.992H90.1698C88.8701 40.8216 87.7661 40.036 87.1621 38.9387L86.7413 37.779L81.3382 22.9276H82.7879C84.3335 22.9276 85.4916 22.5327 86.2664 21.7263C87.0371 20.92 87.4245 19.7894 87.4245 18.3429C87.4245 16.8964 87.0371 15.7658 86.2539 14.947C85.4707 14.1157 84.321 13.7083 82.7879 13.7083H80.1426C78.872 13.5088 77.7972 12.7149 77.2182 11.6217L76.8349 10.566C76.8349 10.566 76.8349 10.5535 76.8349 10.5493L75.7227 7.49841H82.7921C83.2587 7.49841 83.7169 7.51088 84.1627 7.53582C87.4995 7.71455 90.1532 8.58328 92.1361 10.1461C94.3773 11.9002 95.5021 14.3983 95.5021 17.6072C95.5021 19.9349 95.0314 21.8718 94.0899 23.4014C93.3067 24.665 92.1569 25.7374 90.6447 26.6061L94.244 35.0731C94.244 35.0731 94.244 35.0814 94.2524 35.0897L94.5565 35.8088C94.5565 35.8088 94.5565 35.8212 94.5565 35.8254L96.3686 40.09L96.6561 40.7634V40.7592Z" fill="#053699"/>
<path d="M81.2341 35.7838L81.0841 35.3765L71.8859 10.541L71.5818 9.72634C70.9194 8.40039 69.5489 7.49426 67.9658 7.49426H63.1501L53.0813 34.8902L52.5605 36.3117L50.84 40.9837H56.5347C58.1803 40.9837 59.5966 39.9986 60.2257 38.5895L60.5048 37.6875L61.4213 34.7281H72.5108L73.4398 37.7042L73.7272 38.6186C74.3563 40.0111 75.7601 40.9837 77.3932 40.9837H83.1587L81.2299 35.7797L81.2341 35.7838ZM63.3584 28.4932L66.9535 16.8798L70.5737 28.4932H63.3584Z" fill="#053699"/>
<path d="M107.958 7.49426V36.9601C107.958 39.1839 106.15 40.9879 103.925 40.9879H99.8887V11.522C99.8887 9.29821 101.693 7.49426 103.925 7.49426H107.958Z" fill="#025FCE"/>
<path d="M121.401 7.49841V36.9601C121.401 39.1839 119.593 40.9878 117.369 40.9878H113.332V11.522C113.332 9.36887 115.027 7.60648 117.16 7.49841H121.401Z" fill="#00A6D3"/>
<path d="M149 7.49842V9.73881C149 11.7921 147.459 13.488 145.463 13.7291H134.636V21.4395H147.688V24.0914C147.504 25.8954 146.126 27.3502 144.359 27.6494H134.64V37.2386C134.507 39.3335 132.761 40.992 130.633 40.992H126.55V11.522C126.55 9.29821 128.358 7.49426 130.583 7.49426H149.008L149 7.49842Z" fill="#053699"/>
<path d="M43.7789 20.5625C43.304 18.2307 42.375 16.0485 41.0878 14.1281C37.8509 9.29821 32.3478 6.09766 26.1907 6.09766H25.9824C21.0167 6.15585 16.5759 8.11359 13.3432 11.2726C12.5725 12.0166 11.8768 12.8313 11.252 13.7083C10.0272 15.4333 9.09822 17.3869 8.53999 19.4943C8.53583 19.5026 8.53583 19.515 8.53583 19.5275C8.12757 21.0696 7.91928 22.6907 7.94427 24.3741C7.98593 27.4915 8.83993 30.4302 10.3063 32.9782C10.7646 33.7887 11.2936 34.5618 11.8685 35.2892L11.8893 35.3141H11.8935L14.1097 37.5213C14.1472 37.5919 14.5971 38.045 14.7846 38.1946L14.7971 38.2071C15.0262 38.39 15.2678 38.5687 15.5053 38.7433C17.3258 40.0526 19.4045 41.0253 21.6291 41.5739C21.9915 41.6695 22.3581 41.7443 22.7289 41.8108C23.3621 41.9231 24.0078 42.0021 24.666 42.0436C24.916 42.0561 25.1701 42.0727 25.4284 42.0769C25.5533 42.081 25.6866 42.081 25.8199 42.081C25.8866 42.081 25.9449 42.081 26.0074 42.0769H26.0741C26.599 42.0769 27.1197 42.0519 27.6321 42.0062C27.8695 41.9854 28.1153 41.9646 28.3569 41.9314C29.1735 41.8316 29.9775 41.6737 30.7565 41.4617C30.9814 41.3994 31.2022 41.3412 31.4188 41.2705C32.0937 41.0627 32.7519 40.8174 33.3935 40.5306C33.5893 40.4475 33.7851 40.3561 33.9725 40.2646C34.4891 40.0152 34.9973 39.7409 35.4847 39.4416C35.693 39.3169 35.8971 39.1839 36.1013 39.0467C36.4762 38.7973 36.847 38.5313 37.2052 38.2487C37.376 38.1157 37.5426 37.9785 37.7134 37.8372C38.13 37.4839 38.5341 37.1139 38.9174 36.7274C39.0757 36.5694 39.2382 36.4032 39.3881 36.2411C39.6881 35.9127 39.9797 35.576 40.2588 35.2227C40.3838 35.0647 40.5046 34.9026 40.6254 34.7447C40.9586 34.2916 41.2794 33.8178 41.571 33.3315C41.6877 33.1403 41.8001 32.9491 41.9085 32.7454C42.2167 32.1842 42.5042 31.5982 42.7541 30.9955C42.8583 30.7502 42.9499 30.505 43.0457 30.2556C43.2332 29.7402 43.404 29.2123 43.5373 28.672C43.6165 28.3852 43.6873 28.0942 43.7498 27.7991C43.8664 27.2379 43.9622 26.6643 44.0205 26.0824C44.058 25.7665 44.0872 25.4465 44.0997 25.1264C44.1289 24.7107 44.1372 24.3034 44.133 23.8877C44.1205 22.753 43.9997 21.639 43.7873 20.5625H43.7789ZM40.7212 24.0041C40.7337 24.6941 40.6962 25.3675 40.6129 26.0325C40.5712 26.3734 40.5171 26.7184 40.4504 27.0509C40.2796 27.8822 40.0422 28.6844 39.7339 29.4575C39.6381 29.6903 39.5423 29.9272 39.4339 30.1517C39.1715 30.7253 38.8757 31.2698 38.5383 31.8018C38.4175 31.9972 38.2883 32.1926 38.1592 32.3796C37.7926 32.9033 37.3927 33.4021 36.9678 33.876C36.8303 34.0215 36.697 34.1669 36.5553 34.3083C36.1471 34.7239 35.7097 35.1146 35.2556 35.4846C35.0848 35.6176 34.9182 35.7423 34.7432 35.867C34.3224 36.1746 33.8809 36.4655 33.4226 36.7274C33.2268 36.8438 33.0227 36.9518 32.8227 37.0557C32.3312 37.3134 31.8188 37.5421 31.2855 37.7457C31.0772 37.8247 30.869 37.8995 30.6565 37.9702C30.0233 38.1822 29.3651 38.3484 28.6985 38.469C28.4486 38.5147 28.1986 38.5521 27.9487 38.5854C27.4405 38.6519 26.9281 38.6934 26.4073 38.7017C26.2948 38.7059 26.1824 38.7059 26.0699 38.7059C26.0074 38.7059 25.9449 38.7059 25.8824 38.7017C25.6241 38.7017 25.3659 38.6934 25.1117 38.6726C24.3411 38.6269 23.5912 38.523 22.858 38.3567H22.8539C22.5706 38.2944 22.2956 38.2237 22.0207 38.1448C21.1417 37.8995 20.296 37.5795 19.5003 37.1804C19.1296 36.9975 18.7672 36.8022 18.4172 36.5819H18.4131C17.4674 36.0166 16.6009 35.3391 15.8094 34.5701C15.4636 34.2417 15.1387 33.8926 14.8304 33.5268C14.8304 33.5268 14.8263 33.5185 14.8263 33.5143H14.8221C12.7225 31.0287 11.4436 27.8365 11.3644 24.2909C11.3353 22.9525 11.4977 21.6474 11.8227 20.4045C11.8227 20.4004 11.8268 20.3962 11.8268 20.3921V20.3838C12.1185 19.2698 12.5392 18.2016 13.0891 17.1998C13.0891 17.1957 13.0933 17.1957 13.0933 17.1915C13.9848 15.5497 15.1887 14.0866 16.6259 12.8936C16.6259 12.8936 16.6287 12.8923 16.6342 12.8895C17.4799 12.1829 18.4047 11.5719 19.3962 11.0731C21.2792 10.1129 23.3996 9.55176 25.6325 9.49357C25.7533 9.48941 25.8824 9.48941 26.0074 9.48941C27.8195 9.48941 29.5484 9.81362 31.1522 10.408C31.1564 10.408 31.1647 10.4122 31.1731 10.4163C31.1772 10.4163 31.1856 10.4205 31.1939 10.4246C31.1981 10.4246 31.2064 10.4288 31.2147 10.4288C32.577 10.9317 33.8392 11.6384 34.9723 12.4988C34.9723 12.4988 34.9751 12.5001 34.9806 12.5029C37.9301 14.7516 39.9922 18.0769 40.5712 21.8801C40.667 22.5078 40.7212 23.152 40.7295 23.8005C40.7337 23.867 40.7337 23.9376 40.7337 24L40.7212 24.0041Z" fill="#025FCE"/>
<path d="M14.2389 39.1298C13.5765 38.469 12.91 37.8039 12.2435 37.143C11.8269 36.7315 11.4186 36.3242 10.9979 35.9085C11.4478 36.4821 11.931 37.0225 12.4476 37.5337C13.01 38.1073 13.6057 38.6352 14.2389 39.1257V39.1298Z" fill="#025FCE"/>
<path d="M11.0853 42.8084C10.9729 43.5025 10.6313 44.1842 10.0647 44.7537C9.91056 44.9033 9.76059 45.0571 9.60645 45.2067H0C1.72466 43.4942 3.45349 41.7734 5.17399 40.0568C5.75721 39.4707 6.41958 39.0675 7.21109 38.9553C7.24858 38.947 7.28191 38.9428 7.3194 38.9345C7.44021 38.9262 7.56519 38.9137 7.69016 38.9137H7.73599C7.73599 38.9137 7.74432 38.9095 7.76098 38.9095C7.8068 38.9095 7.93178 38.9303 8.09842 38.9677C8.515 39.055 9.20237 39.2462 9.55646 39.4582C10.7771 40.2022 11.302 41.524 11.0812 42.8042L11.0853 42.8084Z" fill="#025FCE"/>
<path d="M14.3306 39.2171C14.139 39.4042 13.939 39.5954 13.739 39.7908C13.5807 39.9487 13.4183 40.1108 13.2558 40.2688C12.8892 40.6221 12.5184 40.9837 12.1435 41.3495C12.006 39.8074 11.327 38.7766 10.1272 38.257C9.86479 38.1406 9.57735 38.0492 9.26491 37.991C9.07328 37.9452 8.86499 37.9161 8.65253 37.8912C8.77334 37.7748 8.88998 37.6543 9.01079 37.5337C9.16909 37.3758 9.33156 37.2178 9.4857 37.0599C9.94394 36.6068 10.3939 36.1621 10.8188 35.7339H10.8229C10.8813 35.7838 10.9396 35.842 10.9979 35.9044H11.0021C11.4187 36.32 11.8269 36.7274 12.2477 37.143C12.9142 37.8039 13.5807 38.469 14.2431 39.1299L14.3306 39.2171Z" fill="#025FCE"/>
<path d="M43.779 20.5625C43.3041 18.2307 42.3751 16.0485 41.0879 14.1281C37.851 9.29821 32.3479 6.09766 26.1908 6.09766H25.9825C21.0168 6.15585 16.576 8.11359 13.3433 11.2726C12.5726 12.0166 11.8769 12.8313 11.2521 13.7083C10.0273 15.4333 9.09832 17.3869 8.5401 19.4943C8.53594 19.5026 8.53593 19.515 8.53593 19.5275C8.12768 21.0696 7.91939 22.6907 7.94438 24.3741C7.98604 27.4915 8.84004 30.4302 10.3064 32.9782C10.7647 33.7887 11.2937 34.5618 11.8686 35.2892L11.8894 35.3141H11.8936L14.1098 37.5213C14.1473 37.5919 14.5972 38.045 14.7847 38.1946L14.7972 38.2071C15.0263 38.39 15.268 38.5687 15.5054 38.7433C17.3259 40.0526 19.4046 41.0253 21.6292 41.5739C21.9916 41.6695 22.3582 41.7443 22.729 41.8108C23.3622 41.9231 24.0079 42.0021 24.6661 42.0436C24.9161 42.0561 25.1702 42.0727 25.4285 42.0769C25.5534 42.081 25.6867 42.081 25.8201 42.081C25.8867 42.081 25.945 42.081 26.0075 42.0769H26.0742C26.5991 42.0769 27.1198 42.0519 27.6322 42.0062C27.8696 41.9854 28.1154 41.9646 28.3571 41.9314C29.1736 41.8316 29.9776 41.6737 30.7566 41.4617C30.9815 41.3994 31.2023 41.3412 31.419 41.2705C32.0938 41.0627 32.752 40.8174 33.3936 40.5306C33.5894 40.4475 33.7852 40.3561 33.9726 40.2646C34.4892 40.0152 34.9974 39.7409 35.4848 39.4416C35.6931 39.3169 35.8972 39.1839 36.1014 39.0467C36.4763 38.7973 36.8471 38.5313 37.2053 38.2487C37.3761 38.1157 37.5428 37.9785 37.7136 37.8372C38.1301 37.4839 38.5342 37.1139 38.9175 36.7274C39.0758 36.5694 39.2383 36.4032 39.3882 36.2411C39.6882 35.9127 39.9798 35.576 40.2589 35.2227C40.3839 35.0647 40.5047 34.9026 40.6255 34.7447C40.9588 34.2916 41.2795 33.8178 41.5711 33.3315C41.6878 33.1403 41.8003 32.9491 41.9086 32.7454C42.2168 32.1842 42.5043 31.5982 42.7542 30.9955C42.8584 30.7502 42.95 30.505 43.0458 30.2556C43.2333 29.7402 43.4041 29.2123 43.5374 28.672C43.6166 28.3852 43.6874 28.0942 43.7499 27.7991C43.8665 27.2379 43.9623 26.6643 44.0207 26.0824C44.0581 25.7665 44.0873 25.4465 44.0998 25.1264C44.129 24.7107 44.1373 24.3034 44.1331 23.8877C44.1206 22.753 43.9998 21.639 43.7874 20.5625H43.779ZM40.7213 24.0041C40.7338 24.6941 40.6963 25.3675 40.613 26.0325C40.5713 26.3734 40.5172 26.7184 40.4505 27.0509C40.2797 27.8822 40.0423 28.6844 39.734 29.4575C39.6382 29.6903 39.5424 29.9272 39.4341 30.1517C39.1716 30.7253 38.8758 31.2698 38.5384 31.8018C38.4176 31.9972 38.2884 32.1926 38.1593 32.3796C37.7927 32.9033 37.3928 33.4021 36.9679 33.876C36.8304 34.0215 36.6971 34.1669 36.5554 34.3083C36.1472 34.7239 35.7098 35.1146 35.2557 35.4846C35.0849 35.6176 34.9183 35.7423 34.7433 35.867C34.3226 36.1746 33.881 36.4655 33.4227 36.7274C33.2269 36.8438 33.0228 36.9518 32.8228 37.0557C32.3313 37.3134 31.8189 37.5421 31.2856 37.7457C31.0774 37.8247 30.8691 37.8995 30.6566 37.9702C30.0234 38.1822 29.3652 38.3484 28.6987 38.469C28.4487 38.5147 28.1987 38.5521 27.9488 38.5854C27.4406 38.6519 26.9282 38.6934 26.4074 38.7017C26.295 38.7059 26.1825 38.7059 26.07 38.7059C26.0075 38.7059 25.945 38.7059 25.8825 38.7017C25.6243 38.7017 25.366 38.6934 25.1119 38.6726C24.3412 38.6269 23.5913 38.523 22.8581 38.3567H22.854C22.5707 38.2944 22.2957 38.2237 22.0208 38.1448C21.1418 37.8995 20.2961 37.5795 19.5005 37.1804C19.1297 36.9975 18.7673 36.8022 18.4173 36.5819H18.4132C17.4675 36.0166 16.601 35.3391 15.8095 34.5701C15.4637 34.2417 15.1388 33.8926 14.8305 33.5268C14.8305 33.5268 14.8264 33.5185 14.8264 33.5143H14.8222C12.7226 31.0287 11.4437 27.8365 11.3645 24.2909C11.3354 22.9525 11.4979 21.6474 11.8228 20.4045C11.8228 20.4004 11.827 20.3962 11.827 20.3921V20.3838C12.1186 19.2698 12.5393 18.2016 13.0892 17.1998C13.0892 17.1957 13.0934 17.1957 13.0934 17.1915C13.9849 15.5497 15.1888 14.0866 16.626 12.8936C16.626 12.8936 16.6288 12.8923 16.6343 12.8895C17.48 12.1829 18.4048 11.5719 19.3963 11.0731C21.2793 10.1129 23.3997 9.55176 25.6326 9.49357C25.7534 9.48941 25.8825 9.48941 26.0075 9.48941C27.8197 9.48941 29.5485 9.81362 31.1523 10.408C31.1565 10.408 31.1648 10.4122 31.1732 10.4163C31.1773 10.4163 31.1857 10.4205 31.194 10.4246C31.1982 10.4246 31.2065 10.4288 31.2148 10.4288C32.5771 10.9317 33.8393 11.6384 34.9724 12.4988C34.9724 12.4988 34.9752 12.5001 34.9808 12.5029C37.9302 14.7516 39.9923 18.0769 40.5713 21.8801C40.6671 22.5078 40.7213 23.152 40.7296 23.8005C40.7338 23.867 40.7338 23.9376 40.7338 24L40.7213 24.0041ZM14.2432 39.1299C13.5808 38.469 12.9142 37.8039 12.2477 37.143C11.8311 36.7315 11.4229 36.3242 11.0021 35.9085H10.998C10.9396 35.842 10.8813 35.788 10.823 35.7298H10.8188C10.3897 36.1621 9.94399 36.6068 9.48575 37.0599C9.33161 37.2178 9.16914 37.3758 9.01084 37.5337C8.8942 37.6501 8.77755 37.7707 8.65258 37.8912C8.86504 37.9162 9.06916 37.9411 9.26496 37.991C9.58156 38.0533 9.86484 38.1406 10.1273 38.257C11.3229 38.7766 12.0061 39.8074 12.1436 41.3495C12.5185 40.9837 12.8892 40.6179 13.2558 40.2688C13.4183 40.1108 13.5808 39.9487 13.7391 39.7908C13.939 39.5996 14.139 39.4084 14.3306 39.2172L14.2432 39.1299ZM9.56073 39.4624C9.20664 39.2463 8.52344 39.0592 8.10269 38.9719C7.93189 38.9345 7.81108 38.9137 7.76525 38.9137C7.75275 38.9137 7.74442 38.9137 7.74026 38.9179H7.69443C7.56946 38.9179 7.44448 38.9262 7.32367 38.9387C7.28618 38.9428 7.25285 38.947 7.21536 38.9594C6.41968 39.0717 5.76148 39.4749 5.17826 40.0609C3.4536 41.7776 1.72477 43.5026 0.00427246 45.2109H9.60656C9.76069 45.0613 9.91067 44.9075 10.0648 44.7579C10.6272 44.1926 10.973 43.5067 11.0854 42.8126C11.3062 41.5324 10.7813 40.2106 9.56073 39.4665V39.4624Z" fill="#025FCE"/>
<path d="M22.1081 47.6883C21.7291 47.6301 21.3583 47.5636 20.9875 47.4763C20.7542 47.1936 20.5293 46.9151 20.3002 46.6283C18.6255 44.5251 17.0258 42.3679 15.6136 40.1067C16.0427 40.3852 16.4843 40.647 16.9342 40.884C18.5838 43.2033 20.3335 45.452 22.1081 47.6883Z" fill="#00A6D3"/>
<path d="M40.0754 11.1354C38.4799 9.41463 36.572 7.98892 34.4432 6.94978C30.1232 4.26464 25.4283 3.62453 20.3918 5.56149C19.4212 5.93558 18.5047 6.40943 17.6548 6.97057C17.6507 6.97472 17.6423 6.97888 17.6298 6.98303C16.2135 7.66887 14.8762 8.52512 13.6598 9.55179C15.0137 7.86838 16.7342 6.47178 18.9046 5.46589C26.099 2.12401 34.3474 3.90718 39.9463 10.9609C39.988 11.0191 40.0338 11.0731 40.0713 11.1313L40.0754 11.1354Z" fill="#00A6D3"/>
<path d="M50.0902 24.636C50.0819 25.0059 50.0611 25.3675 50.0402 25.7333C49.6736 26.1282 49.2195 26.4233 48.653 26.5854C47.6657 26.8722 46.9117 26.3318 46.2951 25.6086C46.0452 25.3218 45.7744 25.0267 45.6244 24.69C45.4744 24.3533 45.3245 24.0208 45.1745 23.6841C45.1662 23.1479 45.1328 22.62 45.0745 22.1005C45.4703 22.9733 45.8952 23.8254 46.3701 24.6484C47.4116 26.4607 48.503 26.4358 49.8611 24.8396C49.9277 24.7607 50.0069 24.6942 50.0902 24.6318V24.636Z" fill="#00A6D3"/>
<path d="M27.1405 47.6384C27.2197 47.7506 27.303 47.8587 27.3863 47.9709C27.128 47.9834 26.8698 47.9959 26.6073 48C26.4198 47.7631 26.2282 47.522 26.0408 47.2851C24.8702 45.8137 23.6954 44.3464 22.5748 42.8459C22.9289 42.9124 23.283 42.9623 23.6412 43.0038C24.816 44.5459 25.9991 46.0797 27.1447 47.6384H27.1405Z" fill="#00A6D3"/>
<path d="M46.9158 33.5352C46.7909 33.6017 46.6659 33.6682 46.5451 33.7264C46.3534 33.4312 46.1493 33.1403 45.9702 32.8368C45.4078 31.8601 44.8371 30.8916 44.2664 29.9231C44.3497 29.6654 44.4288 29.4035 44.4955 29.1417C45.1745 30.3138 45.8744 31.4735 46.5534 32.6581C46.7117 32.9283 46.7992 33.2442 46.9158 33.5393V33.5352Z" fill="#00A6D3"/>
<path d="M29.6484 43.4611C30.669 44.6374 31.6271 45.8552 32.4478 47.1479C32.252 47.2061 32.0521 47.256 31.8563 47.3017C31.2522 46.379 30.5732 45.4936 29.8358 44.6415C29.3609 44.0929 28.8985 43.5442 28.4361 42.9872C28.6735 42.9581 28.9152 42.9249 29.1526 42.8833C29.3109 43.0745 29.4817 43.2657 29.6442 43.4611H29.6484Z" fill="#00A6D3"/>
<path d="M45.8119 37.6876C45.6994 37.858 45.5828 38.016 45.4578 38.1781C45.0287 37.8372 44.6371 37.4382 44.308 37.0142C43.5998 36.1039 42.9041 35.1853 42.2292 34.2543C42.3501 34.0672 42.4667 33.876 42.5833 33.6807C43.4832 34.9318 44.3997 36.1788 45.437 37.3135C45.5619 37.4548 45.6911 37.5795 45.8119 37.6834V37.6876Z" fill="#00A6D3"/>
<path d="M37.0552 45.3523C36.9094 45.4229 36.7636 45.4977 36.6178 45.5684C34.8932 44.6207 33.2518 43.54 31.723 42.2889C31.9313 42.2224 32.1354 42.1559 32.3395 42.0811C33.8101 43.3239 35.3764 44.4129 37.0552 45.3523Z" fill="#00A6D3"/>
<path d="M44.6204 39.2546C44.5329 39.3626 44.4413 39.4707 44.3496 39.5788C43.1624 38.444 41.9918 37.2968 40.9378 36.0499C41.0586 35.9044 41.1753 35.7547 41.2919 35.6051C42.3209 36.8895 43.4248 38.1074 44.6204 39.2546Z" fill="#00A6D3"/>
<path d="M46.7992 11.8711C47.3616 12.823 47.8615 13.8164 48.2822 14.8431C48.1364 14.5979 47.9739 14.3734 47.7823 14.1739C45.1245 11.3059 42.6208 8.25078 39.7047 5.67371C35.0931 1.59196 29.7733 -0.685833 23.3579 0.361621C18.2006 1.2054 13.6515 3.08417 9.92723 6.8417C7.78598 9.00312 5.91135 11.3557 4.24084 13.858C8.0651 5.66955 16.3926 0 26.0366 0C29.3984 0 32.602 0.68999 35.5097 1.93696C35.8138 2.09906 36.1221 2.27364 36.4262 2.46069C40.5046 4.938 43.8498 8.20506 46.795 11.8711H46.7992Z" fill="#00A6D3"/>
<path d="M49.8569 20.5833C49.7027 20.7787 49.5194 20.9533 49.3111 21.0904C49.0654 21.2525 48.7238 21.265 48.428 21.344C49.0487 20.4378 49.4361 19.777 49.6111 19.1743C49.7069 19.6398 49.7902 20.1095 49.8569 20.5833Z" fill="#00A6D3"/>
<path d="M41.3294 42.5424C41.1545 42.6837 40.9753 42.8251 40.8004 42.9622C40.1671 42.6006 39.5381 42.2348 38.9174 41.8524C38.0342 41.3037 37.1844 40.7343 36.3762 40.1274C36.5845 39.9944 36.7886 39.8614 36.9928 39.7159C38.3883 40.7426 39.838 41.6695 41.3336 42.5424H41.3294Z" fill="#00A6D3"/>
<path d="M42.6875 41.3329C42.5292 41.4867 42.3625 41.6363 42.2001 41.7901C40.7295 40.9131 39.334 39.9654 38.0384 38.9304C38.2134 38.7932 38.38 38.6519 38.5466 38.5106C39.8672 39.5497 41.2586 40.4849 42.6875 41.3329Z" fill="#00A6D3"/>
<path d="M29.8441 47.7091C29.6234 47.7465 29.4067 47.7797 29.1859 47.8088H29.1818C29.1818 47.8088 29.1818 47.8047 29.1776 47.8005C27.9154 46.2584 26.6698 44.7122 25.4783 43.1285C25.595 43.1327 25.7075 43.1327 25.8241 43.1327H26.2282C27.0697 44.2383 27.932 45.3315 28.8027 46.4122C29.1484 46.8445 29.5025 47.2726 29.8441 47.7091Z" fill="#00A6D3"/>
<path d="M39.3923 43.9765C39.2215 44.0929 39.0549 44.2009 38.8799 44.309C37.2719 43.3904 35.7513 42.3845 34.3224 41.2789C34.5099 41.1833 34.6932 41.096 34.8765 40.9962C36.2846 42.0894 37.7884 43.0787 39.3881 43.9765H39.3923Z" fill="#00A6D3"/>
<path d="M41.7668 38.7849C41.471 38.8182 41.3877 38.8556 41.3377 38.8265C41.1628 38.7184 40.9961 38.602 40.8378 38.469C40.4462 38.1323 40.063 37.7915 39.688 37.4424C39.838 37.2886 39.988 37.1348 40.1338 36.9727C40.4629 37.2802 40.7878 37.6003 41.1128 37.9204C41.3419 38.1448 41.5085 38.4316 41.7668 38.7808V38.7849Z" fill="#00A6D3"/>
<path d="M18.7713 46.8944C18.4506 46.7946 18.1381 46.6865 17.8215 46.5702H17.8174C17.6216 46.3332 17.4216 46.0922 17.2258 45.8552C15.9969 44.3464 14.8554 42.7918 13.8265 41.1833L14.3097 40.7136C15.6678 42.8708 17.1758 44.9117 18.7713 46.8944Z" fill="#00A6D3"/>
<path d="M47.0783 35.6592C46.9616 35.8712 46.8408 36.079 46.7117 36.2868C46.5867 36.2245 46.4617 36.1455 46.3368 36.0416C45.5952 35.4472 44.912 34.6949 44.433 33.8802C44.0914 33.2941 43.7414 32.708 43.3998 32.1178C43.5082 31.8892 43.6123 31.6647 43.7039 31.4278C44.0414 32.0139 44.3747 32.5958 44.7121 33.1819C45.1578 33.9508 45.7494 34.6491 46.3659 35.2934C46.5201 35.4555 46.8117 35.6093 47.0741 35.655L47.0783 35.6592Z" fill="#00A6D3"/>
<path d="M48.4655 32.7205C48.2863 33.1777 48.0947 33.6349 47.8864 34.0796C47.699 33.1652 47.4323 32.2632 47.1866 31.3613C47.1074 31.0661 46.9283 30.8001 46.7158 30.3429C47.0824 30.4094 47.2657 30.3886 47.3157 30.4593C47.8281 31.1742 48.2364 31.9265 48.4613 32.7163L48.4655 32.7205Z" fill="#00A6D3"/>
<path d="M49.8027 27.7742C49.7444 28.1482 49.6778 28.5223 49.6028 28.8923C48.7571 29.3661 47.6532 29.4368 46.8283 28.9047C46.0951 28.435 45.4661 27.8781 44.9162 27.2546C44.9579 27.0093 44.9954 26.7558 45.0245 26.5106C45.4786 27.0966 46.0077 27.6411 46.6367 28.1025C47.8281 28.9879 48.5863 28.9131 49.6819 27.8864C49.7236 27.8448 49.7652 27.8074 49.8069 27.77L49.8027 27.7742Z" fill="#00A6D3"/>
<path d="M50.0652 22.832C49.6195 23.3183 49.1737 23.8171 48.6197 24.0582C47.7865 24.4239 47.2658 23.6009 46.8783 22.9234C46.6659 22.566 46.4867 22.1877 46.3576 21.7928C45.8785 20.3505 45.3411 18.9165 44.9704 17.4409C43.4082 11.177 39.1923 7.12848 33.7351 4.2272C32.0604 3.33769 30.0775 3.01764 28.2361 2.43572C27.9904 2.3609 27.7529 2.27777 27.5113 2.19879C27.5363 2.04916 27.5571 1.89952 27.5821 1.74573C28.257 1.8247 28.961 1.81639 29.6109 1.99512C37.5093 4.18563 42.9458 9.00724 45.4911 16.8839C45.816 17.8732 46.0577 18.8791 46.3993 19.8642C46.7367 20.8451 47.0741 21.8386 47.5407 22.7613C47.9948 23.6758 48.5113 23.709 49.2445 22.9941C49.507 22.7405 49.7486 22.4704 50.0277 22.1586C50.0485 22.3831 50.061 22.6075 50.0652 22.832Z" fill="#00A6D3"/>
<path d="M8.98989 36.0748L8.50665 36.557C7.15692 33.8427 6.21544 30.9664 5.88633 27.8947C5.85717 27.6037 5.92383 27.3045 5.94882 27.0093C6.0613 27.0093 6.17378 27.0135 6.28625 27.0135C6.35707 27.1964 6.46955 27.3793 6.48622 27.5663C6.79449 30.5965 7.70681 33.4063 8.98989 36.0706V36.0748Z" fill="#00A6D3"/>
<path d="M14.6971 45.1819C14.2264 44.9325 13.7723 44.6665 13.3266 44.388C12.9308 43.8393 12.5475 43.2823 12.1685 42.7212C12.181 42.6131 12.1935 42.5092 12.1935 42.4011C12.3518 42.3928 12.5101 42.3512 12.6475 42.2764C13.3099 43.2615 13.9973 44.23 14.7013 45.1819H14.6971Z" fill="#00A6D3"/>
<path d="M7.48188 37.8746C7.24443 37.8829 7.00281 37.912 6.77369 37.9619C6.46958 37.4049 6.16964 36.8355 5.87386 36.2702C5.05319 34.6907 4.37832 33.0613 4.44914 31.2324C4.45747 30.9331 4.54912 30.6339 4.59911 30.3387H4.88656C4.94904 30.5466 5.06569 30.7502 5.06152 30.9539C4.9907 32.7496 5.59892 34.3665 6.41959 35.9085C6.77369 36.5694 7.12362 37.2262 7.48605 37.8788L7.48188 37.8746Z" fill="#00A6D3"/>
<path d="M24.8826 47.9834C24.6452 47.9751 24.4077 47.9585 24.1703 47.9418C22.6706 46.088 21.125 44.2633 19.6212 42.4136C19.517 42.2889 19.4379 42.1434 19.3712 41.9855C19.6712 42.0977 19.9836 42.2016 20.2919 42.3014C20.4752 42.5466 20.6626 42.7835 20.8543 43.0163C22.1915 44.6748 23.5454 46.3249 24.8826 47.9834Z" fill="#00A6D3"/>
<path d="M10.3646 12.4448C8.51498 15.2463 6.56952 17.7527 5.12397 20.5251C3.97003 22.7406 3.12436 25.1264 2.23704 27.4791C2.16205 26.9886 2.10373 26.4856 2.06207 25.9827C3.6451 21.2401 8.03174 13.5296 10.3646 12.4448Z" fill="#00A6D3"/>
<path d="M25.1242 1.94113C22.3248 0.690004 11.731 5.92312 10.7937 9.06132C13.0058 7.53586 15.0762 5.7527 17.4466 4.57639C19.8461 3.38761 22.5414 2.80154 25.1201 1.94529L25.1242 1.94113Z" fill="#00A6D3"/>
<path d="M9.51896 10.6325C7.39438 11.3474 0.833163 21.2442 1.30807 23.177C1.46221 23.0814 1.66633 23.0315 1.71216 22.9152C3.57846 18.3679 6.39457 14.4067 9.51896 10.6325Z" fill="#00A6D3"/>
<path d="M34.6682 46.4163C34.4516 46.4995 34.2349 46.5867 34.0142 46.6533C33.3435 45.639 32.5186 44.6706 31.548 43.7395C32.5561 43.8393 33.7267 44.895 34.6682 46.4163Z" fill="#00A6D3"/>
<path d="M6.49869 21.5352C5.33226 24.9061 3.94919 28.0901 3.14935 31.4195C3.05354 31.1327 2.97022 30.8459 2.8869 30.5591C3.69924 26.8431 5.43224 22.0215 6.49869 21.5393V21.5352Z" fill="#00A6D3"/>
<path d="M47.8573 19.2075C48.3988 17.8275 47.1616 14.6602 45.8618 14.0866C46.5325 15.8074 47.1824 17.4784 47.8573 19.2075Z" fill="#00A6D3"/>
<path d="M24.0547 15.6249H23.4045V15.3006C23.4045 15.1168 23.5454 14.9763 23.7296 14.9763C23.9138 14.9763 24.0547 15.1168 24.0547 15.3006V15.6249Z" fill="#1D3E8D"/>
<path d="M25.3171 15.6249H24.992C24.8078 15.6249 24.6669 15.4844 24.6669 15.3006C24.6669 15.1168 24.8078 14.9763 24.992 14.9763H25.3171V15.6249Z" fill="#1D3E8D"/>
<path d="M25.6232 15.6249H25.2981V14.9763H25.6232C25.8074 14.9763 25.9482 15.1168 25.9482 15.3006C25.9482 15.4844 25.8074 15.6249 25.6232 15.6249Z" fill="#1D3E8D"/>
<path d="M27.8418 15.6249H27.1917V15.3006C27.1917 15.1168 27.3326 14.9763 27.5168 14.9763C27.701 14.9763 27.8418 15.1168 27.8418 15.3006V15.6249Z" fill="#1D3E8D"/>
<path d="M29.1042 15.6249H28.454V15.3006C28.454 15.1168 28.5949 14.9763 28.7791 14.9763H29.1042V15.6249Z" fill="#1D3E8D"/>
<path d="M29.7354 14.9763H29.0853V15.6249H29.7354V14.9763Z" fill="#1D3E8D"/>
<path d="M30.3666 15.6249H29.7164V14.9763H30.0415C30.2257 14.9763 30.3666 15.1168 30.3666 15.3006V15.6249Z" fill="#1D3E8D"/>
<path d="M22.4672 16.2547C22.6467 16.2547 22.7923 16.1095 22.7923 15.9304C22.7923 15.7512 22.6467 15.606 22.4672 15.606C22.2877 15.606 22.1422 15.7512 22.1422 15.9304C22.1422 16.1095 22.2877 16.2547 22.4672 16.2547Z" fill="#1D3E8D"/>
<path d="M23.7296 16.2547C23.5454 16.2547 23.4045 16.1141 23.4045 15.9304V15.606H24.0547V15.9304C24.0547 16.1141 23.9138 16.2547 23.7296 16.2547Z" fill="#1D3E8D"/>
<path d="M27.2106 16.2547H26.8855C26.7013 16.2547 26.5605 16.1141 26.5605 15.9304C26.5605 15.7466 26.7013 15.606 26.8855 15.606H27.2106V16.2547Z" fill="#1D3E8D"/>
<path d="M27.8418 15.606H27.1917V16.2547H27.8418V15.606Z" fill="#1D3E8D"/>
<path d="M28.473 15.606H27.8229V16.2547H28.473V15.606Z" fill="#1D3E8D"/>
<path d="M29.1042 15.606H28.454V16.2547H29.1042V15.606Z" fill="#1D3E8D"/>
<path d="M30.3666 15.606H29.7164V16.2547H30.3666V15.606Z" fill="#1D3E8D"/>
<path d="M25.3171 16.8845H24.6669V16.5602C24.6669 16.3764 24.8078 16.2358 24.992 16.2358C25.1762 16.2358 25.3171 16.3764 25.3171 16.5602V16.8845Z" fill="#1D3E8D"/>
<path d="M26.5794 16.8845H25.9293V16.5602C25.9293 16.3764 26.0702 16.2358 26.2544 16.2358C26.4386 16.2358 26.5794 16.3764 26.5794 16.5602V16.8845Z" fill="#1D3E8D"/>
<path d="M28.7791 16.8845C28.5949 16.8845 28.454 16.744 28.454 16.5602V16.2358H29.1042V16.5602C29.1042 16.744 28.9633 16.8845 28.7791 16.8845Z" fill="#1D3E8D"/>
<path d="M30.0415 16.8845C29.8573 16.8845 29.7164 16.744 29.7164 16.5602V16.2358H30.3666V16.5602C30.3666 16.744 30.2257 16.8845 30.0415 16.8845Z" fill="#1D3E8D"/>
<path d="M22.7923 17.5143H22.4672C22.283 17.5143 22.1422 17.3737 22.1422 17.1899C22.1422 17.0061 22.283 16.8656 22.4672 16.8656H22.7923V17.5143Z" fill="#1D3E8D"/>
<path d="M23.4235 16.8656H22.7734V17.5143H23.4235V16.8656Z" fill="#1D3E8D"/>
<path d="M23.7296 17.5143H23.4045V16.8656H23.7296C23.9138 16.8656 24.0547 17.0061 24.0547 17.1899C24.0547 17.3737 23.9138 17.5143 23.7296 17.5143Z" fill="#1D3E8D"/>
<path d="M25.3171 17.5143H24.992C24.8078 17.5143 24.6669 17.3737 24.6669 17.1899V16.8656H25.3171V17.5143Z" fill="#1D3E8D"/>
<path d="M25.9482 16.8656H25.2981V17.5143H25.9482V16.8656Z" fill="#1D3E8D"/>
<path d="M26.5794 16.8656H25.9293V17.5143H26.5794V16.8656Z" fill="#1D3E8D"/>
<path d="M26.8855 17.5143H26.5605V16.8656H26.8855C27.0698 16.8656 27.2106 17.0061 27.2106 17.1899C27.2106 17.3737 27.0698 17.5143 26.8855 17.5143Z" fill="#1D3E8D"/>
<path d="M28.473 17.5143H27.8229V17.1899C27.8229 17.0061 27.9637 16.8656 28.1479 16.8656C28.3321 16.8656 28.473 17.0061 28.473 17.1899V17.5143Z" fill="#1D3E8D"/>
<path d="M29.7354 17.5143H29.0853V17.1899C29.0853 17.0061 29.2261 16.8656 29.4103 16.8656C29.5945 16.8656 29.7354 17.0061 29.7354 17.1899V17.5143Z" fill="#1D3E8D"/>
<path d="M23.4235 17.4954H22.7734V18.144H23.4235V17.4954Z" fill="#1D3E8D"/>
<path d="M25.9482 17.4954H25.2981V18.144H25.9482V17.4954Z" fill="#1D3E8D"/>
<path d="M27.8418 18.144H27.1917V17.8197C27.1917 17.6359 27.3326 17.4954 27.5168 17.4954H27.8418V18.144Z" fill="#1D3E8D"/>
<path d="M28.473 17.4954H27.8229V18.144H28.473V17.4954Z" fill="#1D3E8D"/>
<path d="M29.1042 17.4954H28.454V18.144H29.1042V17.4954Z" fill="#1D3E8D"/>
<path d="M29.7354 17.4954H29.0853V18.144H29.7354V17.4954Z" fill="#1D3E8D"/>
<path d="M30.3666 18.144H29.7164V17.4954H30.0415C30.2257 17.4954 30.3666 17.6359 30.3666 17.8197V18.144Z" fill="#1D3E8D"/>
<path d="M22.7923 18.7739H22.1422V18.4495C22.1422 18.2657 22.283 18.1252 22.4672 18.1252H22.7923V18.7739Z" fill="#1D3E8D"/>
<path d="M23.0984 18.7739H22.7734V18.1252H23.4235V18.4495C23.4235 18.6333 23.2826 18.7739 23.0984 18.7739Z" fill="#1D3E8D"/>
<path d="M24.6859 18.7739H24.3608C24.1766 18.7739 24.0358 18.6333 24.0358 18.4495C24.0358 18.2657 24.1766 18.1252 24.3608 18.1252H24.6859V18.7739Z" fill="#1D3E8D"/>
<path d="M25.3171 18.1252H24.6669V18.7739H25.3171V18.1252Z" fill="#1D3E8D"/>
<path d="M25.9482 18.1252H25.2981V18.7739H25.9482V18.1252Z" fill="#1D3E8D"/>
<path d="M26.5794 18.1252H25.9293V18.7739H26.5794V18.1252Z" fill="#1D3E8D"/>
<path d="M27.2106 18.1252H26.5605V18.7739H27.2106V18.1252Z" fill="#1D3E8D"/>
<path d="M27.8418 18.1252H27.1917V18.7739H27.8418V18.1252Z" fill="#1D3E8D"/>
<path d="M29.1042 18.1252H28.454V18.7739H29.1042V18.1252Z" fill="#1D3E8D"/>
<path d="M30.3666 18.1252H29.7164V18.7739H30.3666V18.1252Z" fill="#1D3E8D"/>
<path d="M22.4672 19.4036C22.283 19.4036 22.1422 19.2631 22.1422 19.0793V18.7549H22.7923V19.0793C22.7923 19.2631 22.6514 19.4036 22.4672 19.4036Z" fill="#1D3E8D"/>
<path d="M24.0547 19.4036H23.4045V19.0793C23.4045 18.8955 23.5454 18.7549 23.7296 18.7549C23.9138 18.7549 24.0547 18.8955 24.0547 19.0793V19.4036Z" fill="#1D3E8D"/>
<path d="M24.992 19.4036C24.8078 19.4036 24.6669 19.2631 24.6669 19.0793V18.7549H25.3171V19.0793C25.3171 19.2631 25.1762 19.4036 24.992 19.4036Z" fill="#1D3E8D"/>
<path d="M26.5794 18.7549H25.9293V19.4036H26.5794V18.7549Z" fill="#1D3E8D"/>
<path d="M27.5168 19.4036C27.3326 19.4036 27.1917 19.2631 27.1917 19.0793V18.7549H27.8418V19.0793C27.8418 19.2631 27.701 19.4036 27.5168 19.4036Z" fill="#1D3E8D"/>
<path d="M28.7791 19.4036C28.5949 19.4036 28.454 19.2631 28.454 19.0793V18.7549H29.1042V19.0793C29.1042 19.2631 28.9633 19.4036 28.7791 19.4036Z" fill="#1D3E8D"/>
<path d="M30.3666 18.7549H29.7164V19.4036H30.3666V18.7549Z" fill="#1D3E8D"/>
<path d="M23.4235 20.0334H22.7734V19.709C22.7734 19.5253 22.9142 19.3847 23.0984 19.3847H23.4235V20.0334Z" fill="#1D3E8D"/>
<path d="M24.0547 19.3847H23.4045V20.0334H24.0547V19.3847Z" fill="#1D3E8D"/>
<path d="M24.6859 20.0334H24.0358V19.3847H24.3608C24.545 19.3847 24.6859 19.5253 24.6859 19.709V20.0334Z" fill="#1D3E8D"/>
<path d="M26.5794 20.0334H26.2544C26.0702 20.0334 25.9293 19.8928 25.9293 19.709V19.3847H26.5794V20.0334Z" fill="#1D3E8D"/>
<path d="M26.8855 20.0334H26.5605V19.3847H26.8855C27.0698 19.3847 27.2106 19.5253 27.2106 19.709C27.2106 19.8928 27.0698 20.0334 26.8855 20.0334Z" fill="#1D3E8D"/>
<path d="M29.7354 20.0334H29.0853V19.709C29.0853 19.5253 29.2261 19.3847 29.4103 19.3847H29.7354V20.0334Z" fill="#1D3E8D"/>
<path d="M30.0415 20.0334H29.7164V19.3847H30.3666V19.709C30.3666 19.8928 30.2257 20.0334 30.0415 20.0334Z" fill="#1D3E8D"/>
<path d="M17.7428 20.6632H17.0927V20.3389C17.0927 20.1551 17.2335 20.0145 17.4177 20.0145H17.7428V20.6632Z" fill="#1D3E8D"/>
<path d="M18.3739 20.0145H17.7238V20.6632H18.3739V20.0145Z" fill="#1D3E8D"/>
<path d="M19.0052 20.0145H18.355V20.6632H19.0052V20.0145Z" fill="#1D3E8D"/>
<path d="M19.6363 20.0145H18.9862V20.6632H19.6363V20.0145Z" fill="#1D3E8D"/>
<path d="M20.2676 20.6632H19.6174V20.0145H19.9425C20.1267 20.0145 20.2676 20.1551 20.2676 20.3389V20.6632Z" fill="#1D3E8D"/>
<path d="M21.5299 20.6632H21.2048C21.0206 20.6632 20.8798 20.5227 20.8798 20.3389C20.8798 20.1551 21.0206 20.0145 21.2048 20.0145H21.5299V20.6632Z" fill="#1D3E8D"/>
<path d="M22.1611 20.0145H21.511V20.6632H22.1611V20.0145Z" fill="#1D3E8D"/>
<path d="M22.7923 20.0145H22.1422V20.6632H22.7923V20.0145Z" fill="#1D3E8D"/>
<path d="M23.0984 20.6632H22.7734V20.0145H23.4235V20.3389C23.4235 20.5227 23.2826 20.6632 23.0984 20.6632Z" fill="#1D3E8D"/>
<path d="M24.3608 20.6632C24.1766 20.6632 24.0358 20.5227 24.0358 20.3389V20.0145H24.6859V20.3389C24.6859 20.5227 24.545 20.6632 24.3608 20.6632Z" fill="#1D3E8D"/>
<path d="M28.1479 20.6632C28.3275 20.6632 28.473 20.518 28.473 20.3389C28.473 20.1597 28.3275 20.0145 28.1479 20.0145C27.9684 20.0145 27.8229 20.1597 27.8229 20.3389C27.8229 20.518 27.9684 20.6632 28.1479 20.6632Z" fill="#1D3E8D"/>
<path d="M29.7354 20.0145H29.0853V20.6632H29.7354V20.0145Z" fill="#1D3E8D"/>
<path d="M30.9978 20.6632H30.3477V20.3389C30.3477 20.1551 30.4885 20.0145 30.6727 20.0145C30.8569 20.0145 30.9978 20.1551 30.9978 20.3389V20.6632Z" fill="#1D3E8D"/>
<path d="M32.2601 20.6632H31.61V20.3389C31.61 20.1551 31.7508 20.0145 31.935 20.0145C32.1193 20.0145 32.2601 20.1551 32.2601 20.3389V20.6632Z" fill="#1D3E8D"/>
<path d="M33.1974 20.6632C33.377 20.6632 33.5225 20.518 33.5225 20.3389C33.5225 20.1597 33.377 20.0145 33.1974 20.0145C33.0179 20.0145 32.8724 20.1597 32.8724 20.3389C32.8724 20.518 33.0179 20.6632 33.1974 20.6632Z" fill="#1D3E8D"/>
<path d="M34.4598 20.6632C34.6394 20.6632 34.7849 20.518 34.7849 20.3389C34.7849 20.1597 34.6394 20.0145 34.4598 20.0145C34.2803 20.0145 34.1348 20.1597 34.1348 20.3389C34.1348 20.518 34.2803 20.6632 34.4598 20.6632Z" fill="#1D3E8D"/>
<path d="M17.4177 21.293C17.2335 21.293 17.0927 21.1524 17.0927 20.9686V20.6443H17.7428V20.9686C17.7428 21.1524 17.6019 21.293 17.4177 21.293Z" fill="#1D3E8D"/>
<path d="M20.2676 21.293H19.9425C19.7583 21.293 19.6174 21.1524 19.6174 20.9686V20.6443H20.2676V21.293Z" fill="#1D3E8D"/>
<path d="M20.5737 21.293H20.2486V20.6443H20.5737C20.7579 20.6443 20.8987 20.7848 20.8987 20.9686C20.8987 21.1524 20.7579 21.293 20.5737 21.293Z" fill="#1D3E8D"/>
<path d="M22.1611 20.6443H21.511V21.293H22.1611V20.6443Z" fill="#1D3E8D"/>
<path d="M24.0547 21.293H23.4045V20.9686C23.4045 20.7848 23.5454 20.6443 23.7296 20.6443C23.9138 20.6443 24.0547 20.7848 24.0547 20.9686V21.293Z" fill="#1D3E8D"/>
<path d="M25.3171 21.293H24.992C24.8078 21.293 24.6669 21.1524 24.6669 20.9686C24.6669 20.7848 24.8078 20.6443 24.992 20.6443H25.3171V21.293Z" fill="#1D3E8D"/>
<path d="M25.9482 21.293H25.2981V20.6443H25.6232C25.8074 20.6443 25.9482 20.7848 25.9482 20.9686V21.293Z" fill="#1D3E8D"/>
<path d="M27.5168 21.293C27.6963 21.293 27.8418 21.1478 27.8418 20.9686C27.8418 20.7895 27.6963 20.6443 27.5168 20.6443C27.3372 20.6443 27.1917 20.7895 27.1917 20.9686C27.1917 21.1478 27.3372 21.293 27.5168 21.293Z" fill="#1D3E8D"/>
<path d="M29.1042 21.293H28.454V20.9686C28.454 20.7848 28.5949 20.6443 28.7791 20.6443H29.1042V21.293Z" fill="#1D3E8D"/>
<path d="M29.7354 20.6443H29.0853V21.293H29.7354V20.6443Z" fill="#1D3E8D"/>
<path d="M30.3666 20.6443H29.7164V21.293H30.3666V20.6443Z" fill="#1D3E8D"/>
<path d="M30.9978 20.6443H30.3477V21.293H30.9978V20.6443Z" fill="#1D3E8D"/>
<path d="M31.6289 20.6443H30.9788V21.293H31.6289V20.6443Z" fill="#1D3E8D"/>
<path d="M32.2601 20.6443H31.61V21.293H32.2601V20.6443Z" fill="#1D3E8D"/>
<path d="M32.5663 21.293H32.2412V20.6443H32.5663C32.7505 20.6443 32.8913 20.7848 32.8913 20.9686C32.8913 21.1524 32.7505 21.293 32.5663 21.293Z" fill="#1D3E8D"/>
<path d="M35.091 21.293C35.2705 21.293 35.4161 21.1478 35.4161 20.9686C35.4161 20.7895 35.2705 20.6443 35.091 20.6443C34.9115 20.6443 34.7659 20.7895 34.7659 20.9686C34.7659 21.1478 34.9115 21.293 35.091 21.293Z" fill="#1D3E8D"/>
<path d="M21.5299 21.9228H21.2048C21.0206 21.9228 20.8798 21.7822 20.8798 21.5984C20.8798 21.4147 21.0206 21.2741 21.2048 21.2741H21.5299V21.9228Z" fill="#1D3E8D"/>
<path d="M22.1611 21.2741H21.511V21.9228H22.1611V21.2741Z" fill="#1D3E8D"/>
<path d="M22.7923 21.9228H22.1422V21.2741H22.4672C22.6514 21.2741 22.7923 21.4147 22.7923 21.5984V21.9228Z" fill="#1D3E8D"/>
<path d="M23.7296 21.9228C23.5454 21.9228 23.4045 21.7822 23.4045 21.5984V21.2741H24.0547V21.5984C24.0547 21.7822 23.9138 21.9228 23.7296 21.9228Z" fill="#1D3E8D"/>
<path d="M25.9482 21.2741H25.2981V21.9228H25.9482V21.2741Z" fill="#1D3E8D"/>
<path d="M26.5794 21.2741H25.9293V21.9228H26.5794V21.2741Z" fill="#1D3E8D"/>
<path d="M26.8855 21.9228H26.5605V21.2741H26.8855C27.0698 21.2741 27.2106 21.4147 27.2106 21.5984C27.2106 21.7822 27.0698 21.9228 26.8855 21.9228Z" fill="#1D3E8D"/>
<path d="M28.7791 21.9228C28.5949 21.9228 28.454 21.7822 28.454 21.5984V21.2741H29.1042V21.5984C29.1042 21.7822 28.9633 21.9228 28.7791 21.9228Z" fill="#1D3E8D"/>
<path d="M30.6727 21.9228C30.4885 21.9228 30.3477 21.7822 30.3477 21.5984V21.2741H30.9978V21.5984C30.9978 21.7822 30.8569 21.9228 30.6727 21.9228Z" fill="#1D3E8D"/>
<path d="M17.4177 22.5525C17.5972 22.5525 17.7428 22.4073 17.7428 22.2282C17.7428 22.0491 17.5972 21.9039 17.4177 21.9039C17.2382 21.9039 17.0927 22.0491 17.0927 22.2282C17.0927 22.4073 17.2382 22.5525 17.4177 22.5525Z" fill="#1D3E8D"/>
<path d="M19.6363 22.5525H18.9862V22.2282C18.9862 22.0444 19.1271 21.9039 19.3113 21.9039H19.6363V22.5525Z" fill="#1D3E8D"/>
<path d="M20.2676 21.9039H19.6174V22.5525H20.2676V21.9039Z" fill="#1D3E8D"/>
<path d="M20.5737 22.5525H20.2486V21.9039H20.5737C20.7579 21.9039 20.8987 22.0444 20.8987 22.2282C20.8987 22.412 20.7579 22.5525 20.5737 22.5525Z" fill="#1D3E8D"/>
<path d="M22.1611 21.9039H21.511V22.5525H22.1611V21.9039Z" fill="#1D3E8D"/>
<path d="M22.7923 21.9039H22.1422V22.5525H22.7923V21.9039Z" fill="#1D3E8D"/>
<path d="M25.3171 22.5525H24.6669V22.2282C24.6669 22.0444 24.8078 21.9039 24.992 21.9039H25.3171V22.5525Z" fill="#1D3E8D"/>
<path d="M25.6232 22.5525H25.2981V21.9039H25.9482V22.2282C25.9482 22.412 25.8074 22.5525 25.6232 22.5525Z" fill="#1D3E8D"/>
<path d="M27.5168 22.5525C27.6963 22.5525 27.8418 22.4073 27.8418 22.2282C27.8418 22.0491 27.6963 21.9039 27.5168 21.9039C27.3372 21.9039 27.1917 22.0491 27.1917 22.2282C27.1917 22.4073 27.3372 22.5525 27.5168 22.5525Z" fill="#1D3E8D"/>
<path d="M30.0415 22.5525C30.221 22.5525 30.3666 22.4073 30.3666 22.2282C30.3666 22.0491 30.221 21.9039 30.0415 21.9039C29.862 21.9039 29.7164 22.0491 29.7164 22.2282C29.7164 22.4073 29.862 22.5525 30.0415 22.5525Z" fill="#1D3E8D"/>
<path d="M31.935 22.5525C32.1146 22.5525 32.2601 22.4073 32.2601 22.2282C32.2601 22.0491 32.1146 21.9039 31.935 21.9039C31.7555 21.9039 31.61 22.0491 31.61 22.2282C31.61 22.4073 31.7555 22.5525 31.935 22.5525Z" fill="#1D3E8D"/>
<path d="M33.5225 22.5525H32.8724V22.2282C32.8724 22.0444 33.0132 21.9039 33.1974 21.9039C33.3816 21.9039 33.5225 22.0444 33.5225 22.2282V22.5525Z" fill="#1D3E8D"/>
<path d="M34.4598 22.5525C34.6394 22.5525 34.7849 22.4073 34.7849 22.2282C34.7849 22.0491 34.6394 21.9039 34.4598 21.9039C34.2803 21.9039 34.1348 22.0491 34.1348 22.2282C34.1348 22.4073 34.2803 22.5525 34.4598 22.5525Z" fill="#1D3E8D"/>
<path d="M19.3113 23.1823C19.1271 23.1823 18.9862 23.0418 18.9862 22.858V22.5336H19.6363V22.858C19.6363 23.0418 19.4955 23.1823 19.3113 23.1823Z" fill="#1D3E8D"/>
<path d="M21.5299 23.1823H21.2048C21.0206 23.1823 20.8798 23.0418 20.8798 22.858C20.8798 22.6742 21.0206 22.5336 21.2048 22.5336H21.5299V23.1823Z" fill="#1D3E8D"/>
<path d="M22.1611 22.5336H21.511V23.1823H22.1611V22.5336Z" fill="#1D3E8D"/>
<path d="M22.7923 22.5336H22.1422V23.1823H22.7923V22.5336Z" fill="#1D3E8D"/>
<path d="M23.4235 22.5336H22.7734V23.1823H23.4235V22.5336Z" fill="#1D3E8D"/>
<path d="M23.7296 23.1823H23.4045V22.5336H23.7296C23.9138 22.5336 24.0547 22.6742 24.0547 22.858C24.0547 23.0418 23.9138 23.1823 23.7296 23.1823Z" fill="#1D3E8D"/>
<path d="M24.992 23.1823C24.8078 23.1823 24.6669 23.0418 24.6669 22.858V22.5336H25.3171V22.858C25.3171 23.0418 25.1762 23.1823 24.992 23.1823Z" fill="#1D3E8D"/>
<path d="M26.2544 23.1823C26.4339 23.1823 26.5794 23.0371 26.5794 22.858C26.5794 22.6788 26.4339 22.5336 26.2544 22.5336C26.0749 22.5336 25.9293 22.6788 25.9293 22.858C25.9293 23.0371 26.0749 23.1823 26.2544 23.1823Z" fill="#1D3E8D"/>
<path d="M28.473 23.1823H27.8229V22.858C27.8229 22.6742 27.9637 22.5336 28.1479 22.5336H28.473V23.1823Z" fill="#1D3E8D"/>
<path d="M29.1042 22.5336H28.454V23.1823H29.1042V22.5336Z" fill="#1D3E8D"/>
<path d="M29.7354 23.1823H29.0853V22.5336H29.4103C29.5945 22.5336 29.7354 22.6742 29.7354 22.858V23.1823Z" fill="#1D3E8D"/>
<path d="M33.5225 23.1823H33.1974C33.0132 23.1823 32.8724 23.0418 32.8724 22.858V22.5336H33.5225V23.1823Z" fill="#1D3E8D"/>
<path d="M33.8287 23.1823H33.5036V22.5336H33.8287C34.0129 22.5336 34.1537 22.6742 34.1537 22.858C34.1537 23.0418 34.0129 23.1823 33.8287 23.1823Z" fill="#1D3E8D"/>
<path d="M17.7428 23.8121H17.4177C17.2335 23.8121 17.0927 23.6716 17.0927 23.4878C17.0927 23.304 17.2335 23.1635 17.4177 23.1635H17.7428V23.8121Z" fill="#1D3E8D"/>
<path d="M18.3739 23.1635H17.7238V23.8121H18.3739V23.1635Z" fill="#1D3E8D"/>
<path d="M19.0052 23.8121H18.355V23.1635H18.6801C18.8643 23.1635 19.0052 23.304 19.0052 23.4878V23.8121Z" fill="#1D3E8D"/>
<path d="M20.2676 23.8121H19.9425C19.7583 23.8121 19.6174 23.6716 19.6174 23.4878C19.6174 23.304 19.7583 23.1635 19.9425 23.1635H20.2676V23.8121Z" fill="#1D3E8D"/>
<path d="M20.5737 23.8121H20.2486V23.1635H20.5737C20.7579 23.1635 20.8987 23.304 20.8987 23.4878C20.8987 23.6716 20.7579 23.8121 20.5737 23.8121Z" fill="#1D3E8D"/>
<path d="M22.4672 23.8121C22.283 23.8121 22.1422 23.6716 22.1422 23.4878V23.1635H22.7923V23.4878C22.7923 23.6716 22.6514 23.8121 22.4672 23.8121Z" fill="#1D3E8D"/>
<path d="M27.8418 23.8121H27.1917V23.4878C27.1917 23.304 27.3326 23.1635 27.5168 23.1635H27.8418V23.8121Z" fill="#1D3E8D"/>
<path d="M28.473 23.1635H27.8229V23.8121H28.473V23.1635Z" fill="#1D3E8D"/>
<path d="M29.1042 23.1635H28.454V23.8121H29.1042V23.1635Z" fill="#1D3E8D"/>
<path d="M29.7354 23.1635H29.0853V23.8121H29.7354V23.1635Z" fill="#1D3E8D"/>
<path d="M30.3666 23.8121H29.7164V23.1635H30.0415C30.2257 23.1635 30.3666 23.304 30.3666 23.4878V23.8121Z" fill="#1D3E8D"/>
<path d="M31.3039 23.8121C31.4834 23.8121 31.6289 23.6669 31.6289 23.4878C31.6289 23.3087 31.4834 23.1635 31.3039 23.1635C31.1244 23.1635 30.9788 23.3087 30.9788 23.4878C30.9788 23.6669 31.1244 23.8121 31.3039 23.8121Z" fill="#1D3E8D"/>
<path d="M32.5663 23.8121C32.7458 23.8121 32.8913 23.6669 32.8913 23.4878C32.8913 23.3087 32.7458 23.1635 32.5663 23.1635C32.3867 23.1635 32.2412 23.3087 32.2412 23.4878C32.2412 23.6669 32.3867 23.8121 32.5663 23.8121Z" fill="#1D3E8D"/>
<path d="M35.091 23.8121C35.2705 23.8121 35.4161 23.6669 35.4161 23.4878C35.4161 23.3087 35.2705 23.1635 35.091 23.1635C34.9115 23.1635 34.7659 23.3087 34.7659 23.4878C34.7659 23.6669 34.9115 23.8121 35.091 23.8121Z" fill="#1D3E8D"/>
<path d="M18.6801 24.4419C18.4959 24.4419 18.355 24.3013 18.355 24.1176V23.7932H19.0052V24.1176C19.0052 24.3013 18.8643 24.4419 18.6801 24.4419Z" fill="#1D3E8D"/>
<path d="M21.5299 24.4419H21.2048C21.0206 24.4419 20.8798 24.3013 20.8798 24.1176C20.8798 23.9338 21.0206 23.7932 21.2048 23.7932H21.5299V24.4419Z" fill="#1D3E8D"/>
<path d="M21.836 24.4419H21.511V23.7932H21.836C22.0203 23.7932 22.1611 23.9338 22.1611 24.1176C22.1611 24.3013 22.0203 24.4419 21.836 24.4419Z" fill="#1D3E8D"/>
<path d="M24.0547 24.4419H23.4045V24.1176C23.4045 23.9338 23.5454 23.7932 23.7296 23.7932H24.0547V24.4419Z" fill="#1D3E8D"/>
<path d="M24.6859 23.7932H24.0358V24.4419H24.6859V23.7932Z" fill="#1D3E8D"/>
<path d="M24.992 24.4419H24.6669V23.7932H24.992C25.1762 23.7932 25.3171 23.9338 25.3171 24.1176C25.3171 24.3013 25.1762 24.4419 24.992 24.4419Z" fill="#1D3E8D"/>
<path d="M27.2106 24.4419H26.5605V24.1176C26.5605 23.9338 26.7013 23.7932 26.8855 23.7932H27.2106V24.4419Z" fill="#1D3E8D"/>
<path d="M27.8418 23.7932H27.1917V24.4419H27.8418V23.7932Z" fill="#1D3E8D"/>
<path d="M28.1479 24.4419H27.8229V23.7932H28.473V24.1176C28.473 24.3013 28.3321 24.4419 28.1479 24.4419Z" fill="#1D3E8D"/>
<path d="M30.3666 23.7932H29.7164V24.4419H30.3666V23.7932Z" fill="#1D3E8D"/>
<path d="M30.9978 24.4419H30.3477V23.7932H30.6727C30.8569 23.7932 30.9978 23.9338 30.9978 24.1176V24.4419Z" fill="#1D3E8D"/>
<path d="M32.2601 24.4419H31.61V24.1176C31.61 23.9338 31.7508 23.7932 31.935 23.7932C32.1193 23.7932 32.2601 23.9338 32.2601 24.1176V24.4419Z" fill="#1D3E8D"/>
<path d="M33.5225 24.4419H33.1974C33.0132 24.4419 32.8724 24.3013 32.8724 24.1176C32.8724 23.9338 33.0132 23.7932 33.1974 23.7932H33.5225V24.4419Z" fill="#1D3E8D"/>
<path d="M33.8287 24.4419H33.5036V23.7932H33.8287C34.0129 23.7932 34.1537 23.9338 34.1537 24.1176C34.1537 24.3013 34.0129 24.4419 33.8287 24.4419Z" fill="#1D3E8D"/>
<path d="M19.6363 25.0716H19.3113C19.1271 25.0716 18.9862 24.9311 18.9862 24.7473C18.9862 24.5635 19.1271 24.423 19.3113 24.423H19.6363V25.0716Z" fill="#1D3E8D"/>
<path d="M20.2676 24.423H19.6174V25.0716H20.2676V24.423Z" fill="#1D3E8D"/>
<path d="M20.5737 25.0716H20.2486V24.423H20.5737C20.7579 24.423 20.8987 24.5635 20.8987 24.7473C20.8987 24.9311 20.7579 25.0716 20.5737 25.0716Z" fill="#1D3E8D"/>
<path d="M22.7923 25.0716H22.1422V24.7473C22.1422 24.5635 22.283 24.423 22.4672 24.423H22.7923V25.0716Z" fill="#1D3E8D"/>
<path d="M23.4235 24.423H22.7734V25.0716H23.4235V24.423Z" fill="#1D3E8D"/>
<path d="M24.0547 24.423H23.4045V25.0716H24.0547V24.423Z" fill="#1D3E8D"/>
<path d="M24.6859 24.423H24.0358V25.0716H24.6859V24.423Z" fill="#1D3E8D"/>
<path d="M26.5794 25.0716H26.2544C26.0702 25.0716 25.9293 24.9311 25.9293 24.7473C25.9293 24.5635 26.0702 24.423 26.2544 24.423H26.5794V25.0716Z" fill="#1D3E8D"/>
<path d="M26.8855 25.0716H26.5605V24.423H27.2106V24.7473C27.2106 24.9311 27.0698 25.0716 26.8855 25.0716Z" fill="#1D3E8D"/>
<path d="M29.1042 25.0716H28.7791C28.5949 25.0716 28.454 24.9311 28.454 24.7473C28.454 24.5635 28.5949 24.423 28.7791 24.423H29.1042V25.0716Z" fill="#1D3E8D"/>
<path d="M29.7354 24.423H29.0853V25.0716H29.7354V24.423Z" fill="#1D3E8D"/>
<path d="M30.3666 24.423H29.7164V25.0716H30.3666V24.423Z" fill="#1D3E8D"/>
<path d="M30.9978 24.423H30.3477V25.0716H30.9978V24.423Z" fill="#1D3E8D"/>
<path d="M31.6289 24.423H30.9788V25.0716H31.6289V24.423Z" fill="#1D3E8D"/>
<path d="M32.2601 24.423H31.61V25.0716H32.2601V24.423Z" fill="#1D3E8D"/>
<path d="M32.5663 25.0716H32.2412V24.423H32.5663C32.7505 24.423 32.8913 24.5635 32.8913 24.7473C32.8913 24.9311 32.7505 25.0716 32.5663 25.0716Z" fill="#1D3E8D"/>
<path d="M34.4598 25.0716C34.6394 25.0716 34.7849 24.9264 34.7849 24.7473C34.7849 24.5682 34.6394 24.423 34.4598 24.423C34.2803 24.423 34.1348 24.5682 34.1348 24.7473C34.1348 24.9264 34.2803 25.0716 34.4598 25.0716Z" fill="#1D3E8D"/>
<path d="M19.0052 25.7015H18.355V25.3771C18.355 25.1933 18.4959 25.0528 18.6801 25.0528C18.8643 25.0528 19.0052 25.1933 19.0052 25.3771V25.7015Z" fill="#1D3E8D"/>
<path d="M21.5299 25.7015H21.2048C21.0206 25.7015 20.8798 25.5609 20.8798 25.3771C20.8798 25.1933 21.0206 25.0528 21.2048 25.0528H21.5299V25.7015Z" fill="#1D3E8D"/>
<path d="M22.1611 25.0528H21.511V25.7015H22.1611V25.0528Z" fill="#1D3E8D"/>
<path d="M22.4672 25.7015H22.1422V25.0528H22.7923V25.3771C22.7923 25.5609 22.6514 25.7015 22.4672 25.7015Z" fill="#1D3E8D"/>
<path d="M24.0547 25.0528H23.4045V25.7015H24.0547V25.0528Z" fill="#1D3E8D"/>
<path d="M24.3608 25.7015H24.0358V25.0528H24.6859V25.3771C24.6859 25.5609 24.545 25.7015 24.3608 25.7015Z" fill="#1D3E8D"/>
<path d="M28.1479 25.7015C28.3275 25.7015 28.473 25.5563 28.473 25.3771C28.473 25.198 28.3275 25.0528 28.1479 25.0528C27.9684 25.0528 27.8229 25.198 27.8229 25.3771C27.8229 25.5563 27.9684 25.7015 28.1479 25.7015Z" fill="#1D3E8D"/>
<path d="M29.7354 25.0528H29.0853V25.7015H29.7354V25.0528Z" fill="#1D3E8D"/>
<path d="M32.2601 25.0528H31.61V25.7015H32.2601V25.0528Z" fill="#1D3E8D"/>
<path d="M33.5225 25.7015H33.1974C33.0132 25.7015 32.8724 25.5609 32.8724 25.3771C32.8724 25.1933 33.0132 25.0528 33.1974 25.0528H33.5225V25.7015Z" fill="#1D3E8D"/>
<path d="M34.1537 25.7015H33.5036V25.0528H33.8287C34.0129 25.0528 34.1537 25.1933 34.1537 25.3771V25.7015Z" fill="#1D3E8D"/>
<path d="M17.7428 26.3312H17.0927V26.0069C17.0927 25.8231 17.2335 25.6826 17.4177 25.6826H17.7428V26.3312Z" fill="#1D3E8D"/>
<path d="M18.3739 25.6826H17.7238V26.3312H18.3739V25.6826Z" fill="#1D3E8D"/>
<path d="M19.0052 25.6826H18.355V26.3312H19.0052V25.6826Z" fill="#1D3E8D"/>
<path d="M20.8987 26.3312H20.2486V26.0069C20.2486 25.8231 20.3895 25.6826 20.5737 25.6826C20.7579 25.6826 20.8987 25.8231 20.8987 26.0069V26.3312Z" fill="#1D3E8D"/>
<path d="M23.7296 26.3312C23.5454 26.3312 23.4045 26.1907 23.4045 26.0069V25.6826H24.0547V26.0069C24.0547 26.1907 23.9138 26.3312 23.7296 26.3312Z" fill="#1D3E8D"/>
<path d="M25.3171 26.3312H24.992C24.8078 26.3312 24.6669 26.1907 24.6669 26.0069C24.6669 25.8231 24.8078 25.6826 24.992 25.6826H25.3171V26.3312Z" fill="#1D3E8D"/>
<path d="M25.9482 25.6826H25.2981V26.3312H25.9482V25.6826Z" fill="#1D3E8D"/>
<path d="M26.5794 26.3312H25.9293V25.6826H26.2544C26.4386 25.6826 26.5794 25.8231 26.5794 26.0069V26.3312Z" fill="#1D3E8D"/>
<path d="M27.8418 26.3312H27.1917V26.0069C27.1917 25.8231 27.3326 25.6826 27.5168 25.6826C27.701 25.6826 27.8418 25.8231 27.8418 26.0069V26.3312Z" fill="#1D3E8D"/>
<path d="M29.1042 26.3312H28.454V26.0069C28.454 25.8231 28.5949 25.6826 28.7791 25.6826H29.1042V26.3312Z" fill="#1D3E8D"/>
<path d="M29.7354 25.6826H29.0853V26.3312H29.7354V25.6826Z" fill="#1D3E8D"/>
<path d="M30.3666 25.6826H29.7164V26.3312H30.3666V25.6826Z" fill="#1D3E8D"/>
<path d="M30.9978 25.6826H30.3477V26.3312H30.9978V25.6826Z" fill="#1D3E8D"/>
<path d="M31.6289 25.6826H30.9788V26.3312H31.6289V25.6826Z" fill="#1D3E8D"/>
<path d="M32.2601 25.6826H31.61V26.3312H32.2601V25.6826Z" fill="#1D3E8D"/>
<path d="M32.5663 26.3312H32.2412V25.6826H32.5663C32.7505 25.6826 32.8913 25.8231 32.8913 26.0069C32.8913 26.1907 32.7505 26.3312 32.5663 26.3312Z" fill="#1D3E8D"/>
<path d="M34.1537 25.6826H33.5036V26.3312H34.1537V25.6826Z" fill="#1D3E8D"/>
<path d="M35.091 26.3312C35.2705 26.3312 35.4161 26.186 35.4161 26.0069C35.4161 25.8278 35.2705 25.6826 35.091 25.6826C34.9115 25.6826 34.7659 25.8278 34.7659 26.0069C34.7659 26.186 34.9115 26.3312 35.091 26.3312Z" fill="#1D3E8D"/>
<path d="M17.7428 26.3123H17.0927V26.961H17.7428V26.3123Z" fill="#1D3E8D"/>
<path d="M18.6801 26.961C18.4959 26.961 18.355 26.8204 18.355 26.6367V26.3123H19.0052V26.6367C19.0052 26.8204 18.8643 26.961 18.6801 26.961Z" fill="#1D3E8D"/>
<path d="M20.8987 26.961H20.5737C20.3895 26.961 20.2486 26.8204 20.2486 26.6367V26.3123H20.8987V26.961Z" fill="#1D3E8D"/>
<path d="M21.2048 26.961H20.8798V26.3123H21.2048C21.389 26.3123 21.5299 26.4529 21.5299 26.6367C21.5299 26.8204 21.389 26.961 21.2048 26.961Z" fill="#1D3E8D"/>
<path d="M25.9482 26.3123H25.2981V26.961H25.9482V26.3123Z" fill="#1D3E8D"/>
<path d="M26.5794 26.3123H25.9293V26.961H26.5794V26.3123Z" fill="#1D3E8D"/>
<path d="M27.2106 26.3123H26.5605V26.961H27.2106V26.3123Z" fill="#1D3E8D"/>
<path d="M27.8418 26.3123H27.1917V26.961H27.8418V26.3123Z" fill="#1D3E8D"/>
<path d="M28.473 26.3123H27.8229V26.961H28.473V26.3123Z" fill="#1D3E8D"/>
<path d="M28.7791 26.961H28.454V26.3123H29.1042V26.6367C29.1042 26.8204 28.9633 26.961 28.7791 26.961Z" fill="#1D3E8D"/>
<path d="M30.3666 26.961H30.0415C29.8573 26.961 29.7164 26.8204 29.7164 26.6367V26.3123H30.3666V26.961Z" fill="#1D3E8D"/>
<path d="M30.9978 26.3123H30.3477V26.961H30.9978V26.3123Z" fill="#1D3E8D"/>
<path d="M31.6289 26.3123H30.9788V26.961H31.6289V26.3123Z" fill="#1D3E8D"/>
<path d="M32.2601 26.3123H31.61V26.961H32.2601V26.3123Z" fill="#1D3E8D"/>
<path d="M33.8287 26.961C33.6445 26.961 33.5036 26.8204 33.5036 26.6367V26.3123H34.1537V26.6367C34.1537 26.8204 34.0129 26.961 33.8287 26.961Z" fill="#1D3E8D"/>
<path d="M17.7428 26.9421H17.0927V27.5908H17.7428V26.9421Z" fill="#1D3E8D"/>
<path d="M20.2676 27.5908H19.6174V27.2665C19.6174 27.0827 19.7583 26.9421 19.9425 26.9421C20.1267 26.9421 20.2676 27.0827 20.2676 27.2665V27.5908Z" fill="#1D3E8D"/>
<path d="M22.7923 27.5908H22.1422V27.2665C22.1422 27.0827 22.283 26.9421 22.4672 26.9421H22.7923V27.5908Z" fill="#1D3E8D"/>
<path d="M23.4235 26.9421H22.7734V27.5908H23.4235V26.9421Z" fill="#1D3E8D"/>
<path d="M23.7296 27.5908H23.4045V26.9421H23.7296C23.9138 26.9421 24.0547 27.0827 24.0547 27.2665C24.0547 27.4503 23.9138 27.5908 23.7296 27.5908Z" fill="#1D3E8D"/>
<path d="M25.3171 27.5908H24.6669V27.2665C24.6669 27.0827 24.8078 26.9421 24.992 26.9421H25.3171V27.5908Z" fill="#1D3E8D"/>
<path d="M25.6232 27.5908H25.2981V26.9421H25.9482V27.2665C25.9482 27.4503 25.8074 27.5908 25.6232 27.5908Z" fill="#1D3E8D"/>
<path d="M27.5168 27.5908C27.3326 27.5908 27.1917 27.4503 27.1917 27.2665V26.9421H27.8418V27.2665C27.8418 27.4503 27.701 27.5908 27.5168 27.5908Z" fill="#1D3E8D"/>
<path d="M29.4103 27.5908C29.5899 27.5908 29.7354 27.4456 29.7354 27.2665C29.7354 27.0873 29.5899 26.9421 29.4103 26.9421C29.2308 26.9421 29.0853 27.0873 29.0853 27.2665C29.0853 27.4456 29.2308 27.5908 29.4103 27.5908Z" fill="#1D3E8D"/>
<path d="M32.2601 26.9421H31.61V27.5908H32.2601V26.9421Z" fill="#1D3E8D"/>
<path d="M32.8913 27.5908H32.2412V26.9421H32.5663C32.7505 26.9421 32.8913 27.0827 32.8913 27.2665V27.5908Z" fill="#1D3E8D"/>
<path d="M34.7849 27.5908H34.1348V27.2665C34.1348 27.0827 34.2756 26.9421 34.4598 26.9421C34.644 26.9421 34.7849 27.0827 34.7849 27.2665V27.5908Z" fill="#1D3E8D"/>
<path d="M17.4177 28.2206C17.2335 28.2206 17.0927 28.08 17.0927 27.8962V27.5719H17.7428V27.8962C17.7428 28.08 17.6019 28.2206 17.4177 28.2206Z" fill="#1D3E8D"/>
<path d="M18.6801 28.2206C18.8596 28.2206 19.0052 28.0754 19.0052 27.8962C19.0052 27.7171 18.8596 27.5719 18.6801 27.5719C18.5006 27.5719 18.355 27.7171 18.355 27.8962C18.355 28.0754 18.5006 28.2206 18.6801 28.2206Z" fill="#1D3E8D"/>
<path d="M19.9425 28.2206C19.7583 28.2206 19.6174 28.08 19.6174 27.8962V27.5719H20.2676V27.8962C20.2676 28.08 20.1267 28.2206 19.9425 28.2206Z" fill="#1D3E8D"/>
<path d="M21.2048 28.2206C21.3844 28.2206 21.5299 28.0754 21.5299 27.8962C21.5299 27.7171 21.3844 27.5719 21.2048 27.5719C21.0253 27.5719 20.8798 27.7171 20.8798 27.8962C20.8798 28.0754 21.0253 28.2206 21.2048 28.2206Z" fill="#1D3E8D"/>
<path d="M22.7923 27.5719H22.1422V28.2206H22.7923V27.5719Z" fill="#1D3E8D"/>
<path d="M23.4235 27.5719H22.7734V28.2206H23.4235V27.5719Z" fill="#1D3E8D"/>
<path d="M24.992 28.2206C24.8078 28.2206 24.6669 28.08 24.6669 27.8962V27.5719H25.3171V27.8962C25.3171 28.08 25.1762 28.2206 24.992 28.2206Z" fill="#1D3E8D"/>
<path d="M26.2544 28.2206C26.4339 28.2206 26.5794 28.0754 26.5794 27.8962C26.5794 27.7171 26.4339 27.5719 26.2544 27.5719C26.0749 27.5719 25.9293 27.7171 25.9293 27.8962C25.9293 28.0754 26.0749 28.2206 26.2544 28.2206Z" fill="#1D3E8D"/>
<path d="M28.473 28.2206H27.8229V27.8962C27.8229 27.7124 27.9637 27.5719 28.1479 27.5719C28.3321 27.5719 28.473 27.7124 28.473 27.8962V28.2206Z" fill="#1D3E8D"/>
<path d="M30.3666 28.2206H29.7164V27.8962C29.7164 27.7124 29.8573 27.5719 30.0415 27.5719H30.3666V28.2206Z" fill="#1D3E8D"/>
<path d="M30.9978 27.5719H30.3477V28.2206H30.9978V27.5719Z" fill="#1D3E8D"/>
<path d="M31.6289 27.5719H30.9788V28.2206H31.6289V27.5719Z" fill="#1D3E8D"/>
<path d="M32.2601 27.5719H31.61V28.2206H32.2601V27.5719Z" fill="#1D3E8D"/>
<path d="M32.8913 27.5719H32.2412V28.2206H32.8913V27.5719Z" fill="#1D3E8D"/>
<path d="M34.1537 28.2206H33.5036V27.8962C33.5036 27.7124 33.6445 27.5719 33.8287 27.5719H34.1537V28.2206Z" fill="#1D3E8D"/>
<path d="M34.7849 27.5719H34.1348V28.2206H34.7849V27.5719Z" fill="#1D3E8D"/>
<path d="M35.4161 28.2206H34.7659V27.5719H35.091C35.2752 27.5719 35.4161 27.7124 35.4161 27.8962V28.2206Z" fill="#1D3E8D"/>
<path d="M22.7923 28.2017H22.1422V28.8503H22.7923V28.2017Z" fill="#1D3E8D"/>
<path d="M23.4235 28.2017H22.7734V28.8503H23.4235V28.2017Z" fill="#1D3E8D"/>
<path d="M28.473 28.2017H27.8229V28.8503H28.473V28.2017Z" fill="#1D3E8D"/>
<path d="M28.7791 28.8503H28.454V28.2017H28.7791C28.9633 28.2017 29.1042 28.3422 29.1042 28.526C29.1042 28.7098 28.9633 28.8503 28.7791 28.8503Z" fill="#1D3E8D"/>
<path d="M30.3666 28.2017H29.7164V28.8503H30.3666V28.2017Z" fill="#1D3E8D"/>
<path d="M32.8913 28.2017H32.2412V28.8503H32.8913V28.2017Z" fill="#1D3E8D"/>
<path d="M33.5225 28.2017H32.8724V28.8503H33.5225V28.2017Z" fill="#1D3E8D"/>
<path d="M34.1537 28.2017H33.5036V28.8503H34.1537V28.2017Z" fill="#1D3E8D"/>
<path d="M34.7849 28.2017H34.1348V28.8503H34.7849V28.2017Z" fill="#1D3E8D"/>
<path d="M35.091 28.8503H34.7659V28.2017H35.4161V28.526C35.4161 28.7098 35.2752 28.8503 35.091 28.8503Z" fill="#1D3E8D"/>
<path d="M22.7923 29.4802H22.4672C22.283 29.4802 22.1422 29.3396 22.1422 29.1558V28.8315H22.7923V29.4802Z" fill="#1D3E8D"/>
<path d="M23.4235 28.8315H22.7734V29.4802H23.4235V28.8315Z" fill="#1D3E8D"/>
<path d="M24.6859 29.4802H24.0358V29.1558C24.0358 28.972 24.1766 28.8315 24.3608 28.8315H24.6859V29.4802Z" fill="#1D3E8D"/>
<path d="M24.992 29.4802H24.6669V28.8315H24.992C25.1762 28.8315 25.3171 28.972 25.3171 29.1558C25.3171 29.3396 25.1762 29.4802 24.992 29.4802Z" fill="#1D3E8D"/>
<path d="M27.2106 29.4802H26.8855C26.7013 29.4802 26.5605 29.3396 26.5605 29.1558C26.5605 28.972 26.7013 28.8315 26.8855 28.8315H27.2106V29.4802Z" fill="#1D3E8D"/>
<path d="M27.8418 28.8315H27.1917V29.4802H27.8418V28.8315Z" fill="#1D3E8D"/>
<path d="M28.1479 29.4802H27.8229V28.8315H28.473V29.1558C28.473 29.3396 28.3321 29.4802 28.1479 29.4802Z" fill="#1D3E8D"/>
<path d="M29.7354 29.4802H29.0853V29.1558C29.0853 28.972 29.2261 28.8315 29.4103 28.8315H29.7354V29.4802Z" fill="#1D3E8D"/>
<path d="M30.3666 28.8315H29.7164V29.4802H30.3666V28.8315Z" fill="#1D3E8D"/>
<path d="M31.3039 29.4802C31.4834 29.4802 31.6289 29.3349 31.6289 29.1558C31.6289 28.9767 31.4834 28.8315 31.3039 28.8315C31.1244 28.8315 30.9788 28.9767 30.9788 29.1558C30.9788 29.3349 31.1244 29.4802 31.3039 29.4802Z" fill="#1D3E8D"/>
<path d="M32.8913 28.8315H32.2412V29.4802H32.8913V28.8315Z" fill="#1D3E8D"/>
<path d="M33.5225 28.8315H32.8724V29.4802H33.5225V28.8315Z" fill="#1D3E8D"/>
<path d="M33.8287 29.4802H33.5036V28.8315H34.1537V29.1558C34.1537 29.3396 34.0129 29.4802 33.8287 29.4802Z" fill="#1D3E8D"/>
<path d="M23.4235 29.4612H22.7734V30.1099H23.4235V29.4612Z" fill="#1D3E8D"/>
<path d="M24.6859 29.4612H24.0358V30.1099H24.6859V29.4612Z" fill="#1D3E8D"/>
<path d="M26.2544 30.1099C26.4339 30.1099 26.5794 29.9647 26.5794 29.7856C26.5794 29.6065 26.4339 29.4612 26.2544 29.4612C26.0749 29.4612 25.9293 29.6065 25.9293 29.7856C25.9293 29.9647 26.0749 30.1099 26.2544 30.1099Z" fill="#1D3E8D"/>
<path d="M29.7354 30.1099H29.4103C29.2261 30.1099 29.0853 29.9694 29.0853 29.7856V29.4612H29.7354V30.1099Z" fill="#1D3E8D"/>
<path d="M30.3666 29.4612H29.7164V30.1099H30.3666V29.4612Z" fill="#1D3E8D"/>
<path d="M32.8913 29.4612H32.2412V30.1099H32.8913V29.4612Z" fill="#1D3E8D"/>
<path d="M34.7849 30.1099H34.4598C34.2756 30.1099 34.1348 29.9694 34.1348 29.7856C34.1348 29.6018 34.2756 29.4612 34.4598 29.4612H34.7849V30.1099Z" fill="#1D3E8D"/>
<path d="M35.091 30.1099H34.7659V29.4612H35.091C35.2752 29.4612 35.4161 29.6018 35.4161 29.7856C35.4161 29.9694 35.2752 30.1099 35.091 30.1099Z" fill="#1D3E8D"/>
<path d="M22.7923 30.7397H22.1422V30.4154C22.1422 30.2316 22.283 30.0911 22.4672 30.0911H22.7923V30.7397Z" fill="#1D3E8D"/>
<path d="M23.4235 30.0911H22.7734V30.7397H23.4235V30.0911Z" fill="#1D3E8D"/>
<path d="M24.0547 30.0911H23.4045V30.7397H24.0547V30.0911Z" fill="#1D3E8D"/>
<path d="M24.3608 30.7397H24.0358V30.0911H24.6859V30.4154C24.6859 30.5992 24.545 30.7397 24.3608 30.7397Z" fill="#1D3E8D"/>
<path d="M26.8855 30.7397C27.0651 30.7397 27.2106 30.5945 27.2106 30.4154C27.2106 30.2363 27.0651 30.0911 26.8855 30.0911C26.706 30.0911 26.5605 30.2363 26.5605 30.4154C26.5605 30.5945 26.706 30.7397 26.8855 30.7397Z" fill="#1D3E8D"/>
<path d="M28.473 30.7397H27.8229V30.4154C27.8229 30.2316 27.9637 30.0911 28.1479 30.0911C28.3321 30.0911 28.473 30.2316 28.473 30.4154V30.7397Z" fill="#1D3E8D"/>
<path d="M30.3666 30.0911H29.7164V30.7397H30.3666V30.0911Z" fill="#1D3E8D"/>
<path d="M30.9978 30.0911H30.3477V30.7397H30.9978V30.0911Z" fill="#1D3E8D"/>
<path d="M31.6289 30.0911H30.9788V30.7397H31.6289V30.0911Z" fill="#1D3E8D"/>
<path d="M32.2601 30.0911H31.61V30.7397H32.2601V30.0911Z" fill="#1D3E8D"/>
<path d="M32.5663 30.7397H32.2412V30.0911H32.8913V30.4154C32.8913 30.5992 32.7505 30.7397 32.5663 30.7397Z" fill="#1D3E8D"/>
<path d="M34.1537 30.7397H33.5036V30.4154C33.5036 30.2316 33.6445 30.0911 33.8287 30.0911C34.0129 30.0911 34.1537 30.2316 34.1537 30.4154V30.7397Z" fill="#1D3E8D"/>
<path d="M22.7923 30.7208H22.1422V31.3695H22.7923V30.7208Z" fill="#1D3E8D"/>
<path d="M23.4235 30.7208H22.7734V31.3695H23.4235V30.7208Z" fill="#1D3E8D"/>
<path d="M23.7296 31.3695H23.4045V30.7208H24.0547V31.0452C24.0547 31.229 23.9138 31.3695 23.7296 31.3695Z" fill="#1D3E8D"/>
<path d="M25.3171 31.3695H24.992C24.8078 31.3695 24.6669 31.229 24.6669 31.0452C24.6669 30.8614 24.8078 30.7208 24.992 30.7208H25.3171V31.3695Z" fill="#1D3E8D"/>
<path d="M25.9482 30.7208H25.2981V31.3695H25.9482V30.7208Z" fill="#1D3E8D"/>
<path d="M26.5794 31.3695H25.9293V30.7208H26.2544C26.4386 30.7208 26.5794 30.8614 26.5794 31.0452V31.3695Z" fill="#1D3E8D"/>
<path d="M28.473 31.3695H28.1479C27.9637 31.3695 27.8229 31.229 27.8229 31.0452V30.7208H28.473V31.3695Z" fill="#1D3E8D"/>
<path d="M28.7791 31.3695H28.454V30.7208H28.7791C28.9633 30.7208 29.1042 30.8614 29.1042 31.0452C29.1042 31.229 28.9633 31.3695 28.7791 31.3695Z" fill="#1D3E8D"/>
<path d="M30.0415 31.3695C29.8573 31.3695 29.7164 31.229 29.7164 31.0452V30.7208H30.3666V31.0452C30.3666 31.229 30.2257 31.3695 30.0415 31.3695Z" fill="#1D3E8D"/>
<path d="M32.2601 30.7208H31.61V31.3695H32.2601V30.7208Z" fill="#1D3E8D"/>
<path d="M33.5225 31.3695H32.8724V31.0452C32.8724 30.8614 33.0132 30.7208 33.1974 30.7208H33.5225V31.3695Z" fill="#1D3E8D"/>
<path d="M34.1537 30.7208H33.5036V31.3695H34.1537V30.7208Z" fill="#1D3E8D"/>
<path d="M34.7849 30.7208H34.1348V31.3695H34.7849V30.7208Z" fill="#1D3E8D"/>
<path d="M35.091 31.3695H34.7659V30.7208H35.091C35.2752 30.7208 35.4161 30.8614 35.4161 31.0452C35.4161 31.229 35.2752 31.3695 35.091 31.3695Z" fill="#1D3E8D"/>
<path d="M22.7923 31.3506H22.1422V31.9993H22.7923V31.3506Z" fill="#1D3E8D"/>
<path d="M25.9482 31.3506H25.2981V31.9993H25.9482V31.3506Z" fill="#1D3E8D"/>
<path d="M26.5794 31.3506H25.9293V31.9993H26.5794V31.3506Z" fill="#1D3E8D"/>
<path d="M27.2106 31.3506H26.5605V31.9993H27.2106V31.3506Z" fill="#1D3E8D"/>
<path d="M27.8418 31.9993H27.1917V31.3506H27.5168C27.701 31.3506 27.8418 31.4911 27.8418 31.6749V31.9993Z" fill="#1D3E8D"/>
<path d="M29.4103 31.9993C29.5899 31.9993 29.7354 31.8541 29.7354 31.6749C29.7354 31.4958 29.5899 31.3506 29.4103 31.3506C29.2308 31.3506 29.0853 31.4958 29.0853 31.6749C29.0853 31.8541 29.2308 31.9993 29.4103 31.9993Z" fill="#1D3E8D"/>
<path d="M30.9978 31.9993H30.3477V31.6749C30.3477 31.4911 30.4885 31.3506 30.6727 31.3506H30.9978V31.9993Z" fill="#1D3E8D"/>
<path d="M31.6289 31.3506H30.9788V31.9993H31.6289V31.3506Z" fill="#1D3E8D"/>
<path d="M32.2601 31.3506H31.61V31.9993H32.2601V31.3506Z" fill="#1D3E8D"/>
<path d="M32.8913 31.3506H32.2412V31.9993H32.8913V31.3506Z" fill="#1D3E8D"/>
<path d="M33.5225 31.3506H32.8724V31.9993H33.5225V31.3506Z" fill="#1D3E8D"/>
<path d="M34.1537 31.3506H33.5036V31.9993H34.1537V31.3506Z" fill="#1D3E8D"/>
<path d="M34.7849 31.3506H34.1348V31.9993H34.7849V31.3506Z" fill="#1D3E8D"/>
<path d="M22.7923 31.9804H22.1422V32.6291H22.7923V31.9804Z" fill="#1D3E8D"/>
<path d="M23.4235 31.9804H22.7734V32.6291H23.4235V31.9804Z" fill="#1D3E8D"/>
<path d="M23.7296 32.6291H23.4045V31.9804H23.7296C23.9138 31.9804 24.0547 32.121 24.0547 32.3047C24.0547 32.4885 23.9138 32.6291 23.7296 32.6291Z" fill="#1D3E8D"/>
<path d="M25.3171 32.6291H24.6669V32.3047C24.6669 32.121 24.8078 31.9804 24.992 31.9804H25.3171V32.6291Z" fill="#1D3E8D"/>
<path d="M25.6232 32.6291H25.2981V31.9804H25.9482V32.3047C25.9482 32.4885 25.8074 32.6291 25.6232 32.6291Z" fill="#1D3E8D"/>
<path d="M27.5168 32.6291C27.3326 32.6291 27.1917 32.4885 27.1917 32.3047V31.9804H27.8418V32.3047C27.8418 32.4885 27.701 32.6291 27.5168 32.6291Z" fill="#1D3E8D"/>
<path d="M30.3666 32.6291H30.0415C29.8573 32.6291 29.7164 32.4885 29.7164 32.3047C29.7164 32.121 29.8573 31.9804 30.0415 31.9804H30.3666V32.6291Z" fill="#1D3E8D"/>
<path d="M30.9978 31.9804H30.3477V32.6291H30.9978V31.9804Z" fill="#1D3E8D"/>
<path d="M31.6289 31.9804H30.9788V32.6291H31.6289V31.9804Z" fill="#1D3E8D"/>
<path d="M32.2601 31.9804H31.61V32.6291H32.2601V31.9804Z" fill="#1D3E8D"/>
<path d="M33.5225 31.9804H32.8724V32.6291H33.5225V31.9804Z" fill="#1D3E8D"/>
<path d="M34.4598 32.6291C34.2756 32.6291 34.1348 32.4885 34.1348 32.3047V31.9804H34.7849V32.3047C34.7849 32.4885 34.644 32.6291 34.4598 32.6291Z" fill="#1D3E8D"/>
<path d="M22.7923 33.2588H22.4672C22.283 33.2588 22.1422 33.1183 22.1422 32.9345V32.6102H22.7923V33.2588Z" fill="#1D3E8D"/>
<path d="M23.0984 33.2588H22.7734V32.6102H23.4235V32.9345C23.4235 33.1183 23.2826 33.2588 23.0984 33.2588Z" fill="#1D3E8D"/>
<path d="M24.992 33.2588C24.8078 33.2588 24.6669 33.1183 24.6669 32.9345V32.6102H25.3171V32.9345C25.3171 33.1183 25.1762 33.2588 24.992 33.2588Z" fill="#1D3E8D"/>
<path d="M26.2544 33.2588C26.4339 33.2588 26.5794 33.1136 26.5794 32.9345C26.5794 32.7554 26.4339 32.6102 26.2544 32.6102C26.0749 32.6102 25.9293 32.7554 25.9293 32.9345C25.9293 33.1136 26.0749 33.2588 26.2544 33.2588Z" fill="#1D3E8D"/>
<path d="M28.473 33.2588H28.1479C27.9637 33.2588 27.8229 33.1183 27.8229 32.9345C27.8229 32.7507 27.9637 32.6102 28.1479 32.6102H28.473V33.2588Z" fill="#1D3E8D"/>
<path d="M29.1042 32.6102H28.454V33.2588H29.1042V32.6102Z" fill="#1D3E8D"/>
<path d="M29.4103 33.2588H29.0853V32.6102H29.4103C29.5945 32.6102 29.7354 32.7507 29.7354 32.9345C29.7354 33.1183 29.5945 33.2588 29.4103 33.2588Z" fill="#1D3E8D"/>
<path d="M32.2601 33.2588H31.935C31.7508 33.2588 31.61 33.1183 31.61 32.9345V32.6102H32.2601V33.2588Z" fill="#1D3E8D"/>
<path d="M32.8913 32.6102H32.2412V33.2588H32.8913V32.6102Z" fill="#1D3E8D"/>
<path d="M33.5225 32.6102H32.8724V33.2588H33.5225V32.6102Z" fill="#1D3E8D"/>
<path d="M33.8287 33.2588H33.5036V32.6102H33.8287C34.0129 32.6102 34.1537 32.7507 34.1537 32.9345C34.1537 33.1183 34.0129 33.2588 33.8287 33.2588Z" fill="#1D3E8D"/>
<path d="M21.511 19.3847V16.3618C21.511 15.606 20.8798 14.9763 20.1224 14.9763H18.4813C17.7238 14.9763 17.0927 15.606 17.0927 16.3618V17.9677C17.0927 18.755 17.7238 19.3847 18.4813 19.3847H21.511ZM18.6075 15.606H19.9961C20.4695 15.606 20.8798 16.0154 20.8798 16.4877V18.755H18.6075C18.1341 18.755 17.7238 18.3456 17.7238 17.8733V16.4877C17.7238 16.0154 18.1341 15.606 18.6075 15.606Z" fill="#1D3E8D"/>
<path d="M30.9788 19.3847H34.0085C34.766 19.3847 35.3972 18.755 35.3972 17.9992V16.3618C35.3972 15.606 34.766 14.9763 34.0085 14.9763H32.399C31.61 14.9763 30.9788 15.606 30.9788 16.3618V19.3847ZM34.766 16.4877V17.8733C34.766 18.3456 34.3557 18.755 33.8823 18.755H31.61V16.4877C31.61 16.0154 32.0203 15.606 32.4937 15.606H33.8823C34.3557 15.606 34.766 16.0154 34.766 16.4877Z" fill="#1D3E8D"/>
<path d="M21.511 28.8315H18.4813C17.7238 28.8315 17.0927 29.4613 17.0927 30.217V31.8545C17.0927 32.6102 17.7238 33.24 18.4813 33.24H20.0908C20.8798 33.24 21.511 32.6102 21.511 31.8545V28.8315ZM17.7238 31.7285V30.343C17.7238 29.8707 18.1341 29.4613 18.6075 29.4613H20.8798V31.7285C20.8798 32.2008 20.4695 32.6102 19.9961 32.6102H18.6075C18.1341 32.6102 17.7238 32.2008 17.7238 31.7285Z" fill="#1D3E8D"/>
<path d="M20.2486 16.7712V17.6214C20.2486 17.8733 19.9961 18.1252 19.7121 18.1252H18.8916C18.576 18.1252 18.355 17.9048 18.355 17.5899V16.7712C18.355 16.4878 18.6075 16.2358 18.8916 16.2358H19.7437C20.0277 16.2358 20.2486 16.4563 20.2486 16.7712Z" fill="#1D3E8D"/>
<path d="M34.1348 16.7712V17.6214C34.1348 17.8733 33.8823 18.1252 33.5983 18.1252H32.7777C32.4621 18.1252 32.2412 17.9048 32.2412 17.5899V16.7712C32.2412 16.4878 32.4937 16.2358 32.7777 16.2358H33.6298C33.9139 16.2358 34.1348 16.4563 34.1348 16.7712Z" fill="#1D3E8D"/>
<path d="M20.2486 30.6264V31.4766C20.2486 31.7285 19.9961 31.9804 19.7121 31.9804H18.8916C18.576 31.9804 18.355 31.76 18.355 31.4451V30.6264C18.355 30.343 18.6075 30.0911 18.8916 30.0911H19.7437C20.0277 30.0911 20.2486 30.3115 20.2486 30.6264Z" fill="#1D3E8D"/>
</g>
<defs>
<clipPath id="clip0_61_25223">
<rect width="149" height="48" fill="white"/>
</clipPath>
</defs>
</svg>
